<?xml version="1.0" encoding="UTF-8" standalone="no"?>
<!-- Generator: Adobe Illustrator 19.0.0, SVG Export Plug-In . SVG Version: 6.00 Build 0)  -->

<svg
   version="1.1"
   id="svg2985"
   x="0px"
   y="0px"
   viewBox="-192 293.9 210 255"
   style="enable-background:new -192 293.9 210 255;"
   xml:space="preserve"
   sodipodi:docname="autumn.svg"
   inkscape:version="1.1.2 (0a00cf5339, 2022-02-04)"
   xmlns:inkscape="http://www.inkscape.org/namespaces/inkscape"
   xmlns:sodipodi="http://sodipodi.sourceforge.net/DTD/sodipodi-0.dtd"
   xmlns="http://www.w3.org/2000/svg"
   xmlns:svg="http://www.w3.org/2000/svg"><defs
   id="defs196">
	
	

		
			<filter
   width="1.0183963"
   height="1.0200796"
   color-interpolation-filters="sRGB"
   y="-0.010039815"
   x="-0.0091981534"
   id="filter3970-5">
			<feGaussianBlur
   stdDeviation="0.12800763"
   id="feGaussianBlur3972-8" />
		</filter>
		
		
		
		
		
	</defs><sodipodi:namedview
   id="namedview194"
   pagecolor="#ffffff"
   bordercolor="#666666"
   borderopacity="1.0"
   inkscape:pageshadow="2"
   inkscape:pageopacity="0.0"
   inkscape:pagecheckerboard="0"
   showgrid="false"
   inkscape:zoom="1.6078432"
   inkscape:cx="55.975609"
   inkscape:cy="171.34756"
   inkscape:window-width="1866"
   inkscape:window-height="1009"
   inkscape:window-x="54"
   inkscape:window-y="34"
   inkscape:window-maximized="1"
   inkscape:current-layer="svg2985" />
<style
   type="text/css"
   id="style2">
	.st0{enable-background:new    ;}
	.st1{fill:#005F00;}
	.st2{fill:#CDDACD;}
	.st3{fill:#FFFFFF;}
	.st4{fill:url(#rect3008_1_);}
	.st5{filter:url(#filter3970-5);}
	.st6{fill:url(#SVGID_1_);}
	.st7{fill:#BF3718;}
	.st8{fill:#D37F11;}
	.st9{fill:#038249;}
	.st10{fill:#2A3B92;}
</style>
<g
   id="g4146"
   transform="translate(39.768324,209.71794)">
		</g><g
   id="g984"
   transform="matrix(1.4035587,0,0,1.4035587,58.057792,-198.4817)"><g
     id="g181">
			<path
   class="st7"
   d="m -165.8,418.1 c 0,-1 -0.5,-1.4 -1.4,-1.4 -1,0 -1.4,0.5 -1.4,1.4 0,1 0.5,1.4 1.4,1.4 0.9,0.1 1.4,-0.4 1.4,-1.4 z"
   id="path29" />
			<path
   class="st7"
   d="m -161.2,416.7 c -1,0 -1.4,0.5 -1.4,1.4 0,1 0.5,1.4 1.4,1.4 1,0 1.4,-0.5 1.4,-1.4 0,-0.9 -0.4,-1.4 -1.4,-1.4 z"
   id="path31" />
			<path
   class="st7"
   d="m -164.8,415.6 c 1,0 1.4,-0.5 1.4,-1.4 0,-1 -0.5,-1.4 -1.4,-1.4 -1,0 -1.4,0.5 -1.4,1.4 0,0.9 0.4,1.4 1.4,1.4 z"
   id="path33" />
			<path
   class="st7"
   d="m -161.4,411.5 c 1,0 1.4,-0.5 1.4,-1.4 0,-1 -0.5,-1.4 -1.4,-1.4 -1,0 -1.4,0.5 -1.4,1.4 0,1 0.4,1.4 1.4,1.4 z"
   id="path35" />
			<path
   class="st7"
   d="m -161,424.4 c -1,0 -1.4,0.5 -1.4,1.4 0,1 0.5,1.4 1.4,1.4 1,0 1.4,-0.5 1.4,-1.4 0.1,-0.9 -0.4,-1.4 -1.4,-1.4 z"
   id="path37" />
			<path
   class="st7"
   d="m -158,423.3 c 1,0 1.4,-0.5 1.4,-1.4 0,-1 -0.5,-1.4 -1.4,-1.4 -1,0 -1.4,0.5 -1.4,1.4 0,0.9 0.5,1.4 1.4,1.4 z"
   id="path39" />
			<path
   class="st8"
   d="m -76.5,515.6 c -1,0 -1.4,0.5 -1.4,1.4 0,1 0.5,1.4 1.4,1.4 1,0 1.4,-0.5 1.4,-1.4 0.1,-0.9 -0.4,-1.4 -1.4,-1.4 z"
   id="path41" />
			<path
   class="st7"
   d="m -158,415.6 c 1,0 1.4,-0.5 1.4,-1.4 0,-1 -0.5,-1.4 -1.4,-1.4 -1,0 -1.4,0.5 -1.4,1.4 0,0.9 0.5,1.4 1.4,1.4 z"
   id="path43" />
			<path
   class="st8"
   d="m -70.1,514.9 c -1,0 -1.4,0.5 -1.4,1.4 0,1 0.5,1.4 1.4,1.4 1,0 1.4,-0.5 1.4,-1.4 0,-0.9 -0.5,-1.4 -1.4,-1.4 z"
   id="path45" />
			<path
   class="st7"
   d="m -154.6,427.2 c 1,0 1.4,-0.5 1.4,-1.4 0,-1 -0.5,-1.4 -1.4,-1.4 -1,0 -1.4,0.5 -1.4,1.4 0,1 0.5,1.4 1.4,1.4 z"
   id="path47" />
			<path
   class="st8"
   d="m -36.5,481 c -1,0 -1.4,0.5 -1.4,1.4 0,1 0.5,1.4 1.4,1.4 1,0 1.4,-0.5 1.4,-1.4 0,-1 -0.4,-1.4 -1.4,-1.4 z"
   id="path49" />
			<path
   class="st8"
   d="m -66.5,514.6 c 1,0 1.4,-0.5 1.4,-1.4 0,-1 -0.5,-1.4 -1.4,-1.4 -1,0 -1.4,0.5 -1.4,1.4 0,0.9 0.5,1.4 1.4,1.4 z"
   id="path51" />
			<path
   class="st8"
   d="m -36.5,476.2 c -1,0 -1.4,0.5 -1.4,1.4 0,1 0.5,1.4 1.4,1.4 1,0 1.4,-0.5 1.4,-1.4 0,-0.9 -0.4,-1.4 -1.4,-1.4 z"
   id="path53" />
			<path
   class="st8"
   d="m -73.7,512.3 c -1,0 -1.4,0.5 -1.4,1.4 0,1 0.5,1.4 1.4,1.4 1,0 1.4,-0.5 1.4,-1.4 0,-0.9 -0.5,-1.4 -1.4,-1.4 z"
   id="path55" />
			<path
   class="st7"
   d="m -165.4,425.8 c 0,-1 -0.5,-1.4 -1.4,-1.4 -1,0 -1.4,0.5 -1.4,1.4 0,1 0.5,1.4 1.4,1.4 1,0 1.4,-0.4 1.4,-1.4 z"
   id="path57" />
			<path
   class="st8"
   d="m -37.9,473.1 c 0,1 0.5,1.4 1.4,1.4 1,0 1.4,-0.5 1.4,-1.4 0,-1 -0.5,-1.4 -1.4,-1.4 -0.9,-0.1 -1.4,0.4 -1.4,1.4 z"
   id="path59" />
			<path
   class="st7"
   d="m -164.3,438.5 c 2.8,2 5.8,3 9.1,3 5.1,0 9.7,-1.6 13.6,-4.9 4,-3.3 5.9,-7.3 5.9,-12 0,-3.5 -0.3,-5.9 -0.8,-7.3 0.4,-0.7 0.7,-1.8 0.9,-3.1 0.2,-1.3 0.5,-2.2 1,-2.7 -0.4,-0.1 -1.1,-0.1 -2.2,-0.1 -3.4,0 -5.6,0.1 -6.7,0.4 -1.1,0.3 -2.1,0.7 -2.9,1.3 0.4,-0.9 0.8,-1.9 1,-3 0.2,-1.1 0.7,-2.8 1.4,-5.1 -0.2,0 -0.9,0 -2.1,-0.1 -1.2,-0.1 -2.3,0 -3.1,0.2 -0.1,-0.5 -0.3,-1.1 -0.4,-1.8 -0.1,-0.7 -0.6,-1.8 -1.4,-3.2 -1.4,1.2 -2.7,2.2 -4,3 -1.3,0.8 -2.4,1.6 -3.2,2.3 -4.4,1 -8,2.7 -10.9,5.3 -2.9,2.6 -4.3,6.1 -4.3,10.6 0,3.2 0.8,6.4 2.5,9.5 1.5,3.1 3.8,5.7 6.6,7.7 z m -2.3,-26.9 c 3,-2.9 6,-4.3 9,-4.3 0.5,-0.5 1.3,-1.1 2.4,-1.6 1.1,-0.6 2.2,-1.5 3.5,-2.7 0.4,1.2 0.6,2.1 0.7,2.6 0.1,0.5 0.1,1 0.2,1.5 l 4.4,-0.2 c -0.4,1.1 -0.9,2.3 -1.3,3.6 -0.4,1.3 -0.8,3.2 -1,5.9 0.9,-0.2 2,-0.6 3.2,-1.3 1.3,-0.6 2.4,-1.1 3.4,-1.4 1,-0.3 2.3,-0.4 3.9,-0.4 -0.8,1.1 -1.5,2.8 -2,5.1 -0.5,2 -1.1,3.5 -1.8,4.7 -0.7,1.1 -1.7,1.7 -3.2,1.7 0.1,0.2 0.2,0.6 0.2,1.1 0,1 -0.3,2 -1,3.1 -0.7,1.1 -2,2.6 -4,4.3 -1,-1 -2.3,-1.8 -4.2,-2.6 -1.7,0.3 -3.8,1.7 -6.4,4.3 -2.9,-1.6 -5.1,-3.5 -6.6,-5.7 -1.5,-2.2 -2.9,-4.8 -4.3,-8 0.3,-3.6 1.8,-6.8 4.9,-9.7 z"
   id="path61" />
			<path
   class="st7"
   d="m -159,429.8 c 0,1 0.5,1.4 1.4,1.4 1,0 1.4,-0.5 1.4,-1.4 0,-1 -0.5,-1.4 -1.4,-1.4 -0.9,-0.1 -1.4,0.4 -1.4,1.4 z"
   id="path63" />
			<path
   class="st7"
   d="m -163.6,428.3 c -1,0 -1.4,0.5 -1.4,1.4 0,1 0.5,1.4 1.4,1.4 1,0 1.4,-0.5 1.4,-1.4 0,-0.9 -0.4,-1.4 -1.4,-1.4 z"
   id="path65" />
			<path
   class="st9"
   d="m -40.7,421.2 c -0.7,-1.8 -3.2,-3 -7.6,-3.4 -0.1,-2.8 -1.6,-4.2 -4.4,-4.2 -2,0 -3.1,1.4 -3.4,4.3 -5.3,0.8 -8,1.9 -7.9,3.4 -6.3,5.1 -9.4,9.3 -9.4,12.9 0,7 2.7,10.4 8.2,10.1 2.4,2 4.9,2.9 7.4,2.7 1.6,-0.1 3.3,-0.4 5.2,-1 1.8,0.7 4.1,0.9 6.8,0.7 3.7,-0.2 6.5,-1.2 8.6,-2.9 4.1,-1.5 6.2,-4.4 6.2,-8.5 -0.1,-4.4 -3.3,-9.1 -9.7,-14.1 z m 1.8,20.7 c -0.2,0.1 -0.4,0.2 -0.7,0.2 -1.3,0.3 -2.4,1.1 -3.4,2 -0.7,0.6 -1.7,0.9 -3,1 -2.7,0.1 -5.8,-1 -6.6,-1 -0.8,0.1 -4.3,1 -6.5,1 -1.5,0 -2.6,-0.5 -3.3,-1.3 -0.8,-0.9 -1.8,-1.3 -2.9,-1.6 -0.1,0 -0.1,0 -0.2,-0.1 0,0 0,0 0,0 -3.4,-0.9 -5.1,-2.8 -4.9,-5.8 0.4,-5.1 3,-9.7 8,-13.8 0,0.1 4.1,1 10.7,0.9 5,-0.1 9.2,-0.7 9.1,-0.9 4.9,4.2 7.5,8.8 7.9,13.8 0.3,2.8 -1.1,4.7 -4.2,5.6 z"
   id="path67" />
			<path
   class="st8"
   d="m -33.4,467.2 c -1.6,-4.8 -4.2,-7.1 -7.8,-7.1 -1.4,-3.4 -2.5,-5.6 -3.3,-6.4 l -3.7,0.4 c -3.9,2.4 -7,6 -9.2,10.9 -5.1,-4.2 -7.7,-7.1 -7.7,-8.5 -3.2,-4.3 -5.5,-6.5 -6.9,-6.5 -2.8,-7.7 -5.6,-11.5 -8.3,-11.5 h -8 l -0.4,-0.2 c -2.4,-5.8 -4.2,-8.7 -5.3,-8.8 -5.1,-1.8 -8.2,-2.6 -9.1,-2.6 l -2.4,0.4 c -4.4,2 -7.3,4.9 -8.8,8.9 h -0.4 c -1.2,-1.2 -3,-1.9 -5.2,-1.9 -2.2,0 -3.7,-1 -4.4,-3 -0.9,0 -3.6,0.7 -8,2 -2,5.2 -4.3,8.8 -6.9,10.7 0,0.7 0.2,1.2 0.5,1.6 0.4,0.4 0.5,0.7 0.5,0.8 -2.1,-0.8 -4.7,-1.6 -7.8,-2.3 h -0.9 c -1.5,3.4 -3.9,5.2 -7,5.2 -3.7,-0.2 -6.9,-0.3 -9.4,-0.3 h -1.1 c -1,0 -2,0.4 -3.2,1.3 -3.4,8.1 -5.9,12.3 -7.3,12.6 l 0.4,3.2 v 2.5 l -1.2,5.5 c 2.4,2.3 5.5,8.5 9.1,18.8 2.6,7.8 6.8,12.5 12.4,14.1 0.3,4.5 2.2,8.4 5.6,11.5 9,8.3 19.5,12.5 31.5,12.5 h 4.5 c 6.8,0 13.9,-1.5 21.2,-4.6 2.2,-0.9 4.5,-2.5 7,-4.7 3.8,0.5 6.4,0.8 7.7,0.8 h 2.6 c 4.4,0 9.5,-1.4 15.3,-4.2 3.7,-3 7.7,-6.1 11.8,-9.2 6.2,-5.2 9.3,-9.5 9.3,-12.9 4.5,-4.5 6.7,-10.4 6.7,-17.9 v -4.5 c -1.1,-4.4 -1.9,-6.6 -2.4,-6.6 z M -65,462.1 c 5.5,3.6 8.2,10.5 8.2,20.9 0,8.9 -3,17 -9,24.1 -0.7,-1.7 -1,-5.9 -0.9,-12.5 0.7,-6.8 -0.6,-12.5 -3.7,-17.1 -6,-8.9 -14.4,-13.5 -25.2,-13.7 5.8,-2.6 10.7,-4 14.8,-4 h 2.2 c 6.6,-0.1 11.1,0.7 13.6,2.3 z m -25.6,24.5 c -1.3,-6.4 -4.4,-13.2 -9.1,-20.3 l 1.1,-0.2 c 8.1,0 14.9,2.3 20.4,6.9 5.9,4 8.8,10.8 8.8,20.4 0,4.2 -0.4,8.6 -1.1,13.3 -5.6,0.4 -11.5,2.4 -17.6,5.9 l -1.8,-4.3 c 0.5,-2.4 0.8,-4.7 0.8,-6.7 -0.1,-5 -0.6,-10 -1.5,-15 z m -22.8,-32.7 c 2.4,1.6 4.3,4.6 5.6,8.9 -4.6,-2 -9.4,-3 -14.5,-3 -6.7,0 -11.5,0.5 -14.4,1.4 7,-5.9 13.7,-8.8 19.9,-8.8 1.5,0.4 2.6,0.9 3.4,1.5 z m -0.6,-3.8 c 2,-1.6 5.2,-2.4 9.3,-2.4 h 1.4 c 4.5,0 7.7,0.7 9.4,2 -4.6,3.6 -7.8,8.3 -9.6,14.3 l -1.6,-3.4 c -3.3,-6.6 -6.3,-10.1 -8.9,-10.5 z m -10.8,12.5 c 2.9,0 6.6,0.4 10.9,1.3 -1.4,0.3 -3.1,0.8 -5.3,1.5 -8.9,3.9 -16,10.2 -21.4,19 l -3.6,-1.1 h -1.9 c -2.3,1.6 -3.4,2.3 -3.4,2.1 -0.1,-0.1 -0.2,-0.2 -0.2,-0.3 v -3.7 c 0,-5 2.8,-9.4 8.5,-13.3 3.1,-3.6 8.6,-5.5 16.4,-5.5 z m 15.3,3.4 h 2.6 v 0.1 c -6.1,4.1 -10.8,12 -14.1,23.6 -0.4,0 -3.2,-2.2 -8.6,-6.7 h -1 c -1.5,0 -3.7,0.4 -6.5,1.2 8.8,-12.1 18,-18.2 27.6,-18.2 z m -4,11.2 c 3.4,-5.7 6.8,-9.2 10.4,-10.3 1.6,1.6 3.7,4.9 6.4,10 2.9,6.6 4.5,13.4 4.7,20.3 v 3.6 c 0,2.9 -0.1,4.7 -0.4,5.4 -2.5,0 -7.2,-3.2 -14.1,-9.6 -3.3,-4.5 -5.2,-6.8 -5.7,-6.9 h -5.6 c 0.5,-3.1 2,-7.3 4.3,-12.5 z m 45.2,-19.1 c -3.7,-0.9 -6.9,-1.3 -9.4,-1.3 -8.3,0.1 -15.9,2.4 -22.5,6.9 3.2,-8.9 8,-13.4 14.3,-13.4 8.3,0 14.2,2.6 17.6,7.8 z m -62.8,-19.9 c 0.7,-2.2 2.3,-3.3 5.1,-3.3 -0.1,0 0.3,0.6 1.1,1.9 4.5,0.4 8,1.6 10.7,3.4 h 0.9 c 4.1,-6.7 7.5,-10.1 10.1,-10.1 h 0.7 l 7.1,2.1 c 1.8,4.6 3.5,7.9 5.1,9.9 2.5,0 5.7,-0.1 9.8,-0.3 2.5,2.1 3.7,4.2 3.7,6.4 -3.7,-0.7 -6.7,-1 -8.8,-1 -1.1,0 -2.7,0.1 -4.7,0.3 -3.9,-2.2 -8.3,-3.3 -13.2,-3.3 -6.1,0 -10.9,1.6 -14.5,4.8 -4.5,1.2 -8.6,2.4 -12.2,3.7 l -1.9,-2.6 c -1.9,-2 -3.1,-3.8 -3.5,-5.3 1.5,-0.6 3.1,-2.8 4.5,-6.6 z m -40.2,26.3 c 1.4,-1.2 3,-3.7 4.7,-7.5 0.9,-3.2 1.9,-4.8 3.1,-4.8 2.9,0 5.9,0.1 9,0.3 4.7,0 7.8,-1.6 9.3,-4.7 2.8,0.4 4.8,0.9 6,1.4 1.5,0.2 3.1,1.7 4.8,4.4 l 0.4,0.7 c -4.9,3.8 -8,7.3 -9.2,10.3 -6.8,5.6 -10.2,10.9 -10.2,15.7 -9.2,-5.2 -15.2,-7.8 -18.1,-7.8 0,-1 0.1,-2.7 0.3,-5.3 V 466 Z m 16.4,37.9 c -3.1,-2.6 -5.3,-4.9 -6.4,-6.9 -1.4,-2.1 -2.8,-5.3 -4.3,-9.9 -1.7,-4.6 -3.1,-7.8 -4.3,-9.4 8.6,3.1 14,5.8 15.9,8.2 0.3,2 1,3.3 2.2,4 -2.2,2.4 -3.3,7.1 -3.1,14 z m 61,21 c -7.3,3 -13.5,4.5 -18.7,4.5 -5.1,-0.1 -9.2,-0.3 -12.3,-0.7 -5.9,-0.6 -12.8,-4.1 -20.7,-10.7 -4,-3.4 -6,-9.8 -6,-19 0,-3.1 2.1,-6.7 6.4,-11 0.7,0 2.4,0.4 5.3,1.1 1.4,0 4.4,-0.6 8.9,-1.8 5.7,4.9 9.6,7.4 11.8,7.4 l 5.4,-0.7 c 0.7,0.6 1.1,0.9 1.1,1 2.6,3.7 5.1,6.7 7.4,8.9 4.1,3.6 8.1,5.9 11.9,6.9 0.1,0 2,3.3 5.8,10 -1,1.3 -3,2.6 -6.3,4.1 z m 17.9,-4.1 h -1 c -5.1,-0.3 -8.2,-1.5 -9.1,-3.6 v -0.2 c 5.8,-3.5 11.1,-5.3 15.8,-5.3 h 1.9 c 0.5,0 3.4,1.4 8.6,4.3 -4,3.1 -9.4,4.7 -16.2,4.8 z m 30.4,-16.7 c -2.1,2.2 -5.9,5.4 -11.4,9.6 -2.6,-0.7 -4.3,-1.6 -4.9,-2.5 0.6,-0.4 2,-2.2 4.2,-5.4 2.1,-3.4 3.7,-10.5 4.6,-21.3 0,-5 -0.7,-9.9 -2.2,-14.8 1.5,-2.1 3,-3.9 4.3,-5.4 1.4,-2 3,-3.7 4.9,-5.1 0.1,3.6 2.4,5.7 6.8,6.3 0,1 -1.1,4.9 -3.4,11.6 v 0.9 c 0,3.6 1.2,8 3.7,13.3 0,4 -2.2,8.3 -6.6,12.8 z m 11.1,-24.3 c 0,2.5 -0.5,5.7 -1.6,9.6 -2.1,-4.9 -3.1,-8.1 -3.1,-9.6 v -2 l 0.3,-2.1 1,-3.1 1.4,-3.4 c 0,0.2 0.1,0.5 0.2,0.9 1.2,1.7 1.8,3.7 1.8,5.9 z"
   id="path69" />
			<path
   class="st8"
   d="m -36.4,488.7 v -0.5 h 0.1 c 0,0.1 0,0.2 -0.1,0.5 z"
   id="path71" />
			<path
   class="st7"
   d="m -142.2,418.2 c 1,0 1.4,-0.5 1.4,-1.4 0,-1 -0.5,-1.4 -1.4,-1.4 -1,0 -1.4,0.5 -1.4,1.4 0,1 0.5,1.4 1.4,1.4 z"
   id="path73" />
			<path
   class="st7"
   d="m -151.3,431.2 c 1,0 1.4,-0.5 1.4,-1.4 0,-1 -0.5,-1.4 -1.4,-1.4 -1,0 -1.4,0.5 -1.4,1.4 0,0.9 0.5,1.4 1.4,1.4 z"
   id="path75" />
			<path
   class="st7"
   d="m -151.3,423.3 c 1,0 1.4,-0.5 1.4,-1.4 0,-1 -0.5,-1.4 -1.4,-1.4 -1,0 -1.4,0.5 -1.4,1.4 0,0.9 0.5,1.4 1.4,1.4 z"
   id="path77" />
			<path
   class="st7"
   d="m -150.9,415.6 c 1,0 1.4,-0.5 1.4,-1.4 0,-1 -0.5,-1.4 -1.4,-1.4 -1,0 -1.4,0.5 -1.4,1.4 0,0.9 0.5,1.4 1.4,1.4 z"
   id="path79" />
			<path
   class="st7"
   d="m -154.6,411.5 c 1,0 1.4,-0.5 1.4,-1.4 0,-1 -0.5,-1.4 -1.4,-1.4 -1,0 -1.4,0.5 -1.4,1.4 0,1 0.5,1.4 1.4,1.4 z"
   id="path81" />
			<path
   class="st7"
   d="m -144.5,423.3 c 1,0 1.4,-0.5 1.4,-1.4 0,-1 -0.5,-1.4 -1.4,-1.4 -1,0 -1.4,0.5 -1.4,1.4 0,0.9 0.5,1.4 1.4,1.4 z"
   id="path83" />
			<path
   class="st7"
   d="m -154.4,416.7 c -1,0 -1.4,0.5 -1.4,1.4 0,1 0.5,1.4 1.4,1.4 1,0 1.4,-0.5 1.4,-1.4 0.1,-0.9 -0.4,-1.4 -1.4,-1.4 z"
   id="path85" />
			<path
   class="st7"
   d="m -163.4,421.9 c 0,-1 -0.5,-1.4 -1.4,-1.4 -1,0 -1.4,0.5 -1.4,1.4 0,1 0.5,1.4 1.4,1.4 0.9,0 1.4,-0.5 1.4,-1.4 z"
   id="path87" />
			<path
   class="st7"
   d="m -147.4,424.4 c -1,0 -1.4,0.5 -1.4,1.4 0,1 0.5,1.4 1.4,1.4 1,0 1.4,-0.5 1.4,-1.4 0,-0.9 -0.5,-1.4 -1.4,-1.4 z"
   id="path89" />
			<path
   class="st7"
   d="m -147.7,419.6 c 1,0 1.4,-0.5 1.4,-1.4 0,-1 -0.5,-1.4 -1.4,-1.4 -1,0 -1.4,0.5 -1.4,1.4 0,0.9 0.5,1.4 1.4,1.4 z"
   id="path91" />
			<path
   class="st8"
   d="m -140,508.1 c -1,0 -1.4,0.5 -1.4,1.4 0,1 0.5,1.4 1.4,1.4 1,0 1.4,-0.5 1.4,-1.4 0.1,-0.9 -0.4,-1.4 -1.4,-1.4 z"
   id="path93" />
			<path
   class="st8"
   d="m -100.5,513.9 c 1,0 1.4,-0.5 1.4,-1.4 0,-1 -0.5,-1.4 -1.4,-1.4 -1,0 -1.4,0.5 -1.4,1.4 -0.1,1 0.4,1.4 1.4,1.4 z"
   id="path95" />
			<path
   class="st8"
   d="m -130.5,521.7 c -1,0 -1.4,0.5 -1.4,1.4 0,1 0.5,1.4 1.4,1.4 1,0 1.4,-0.5 1.4,-1.4 0,-0.9 -0.5,-1.4 -1.4,-1.4 z"
   id="path97" />
			<path
   class="st8"
   d="m -129.9,488.4 c -1,0 -1.4,0.5 -1.4,1.4 0,1 0.5,1.4 1.4,1.4 1,0 1.4,-0.5 1.4,-1.4 0.1,-0.9 -0.4,-1.4 -1.4,-1.4 z"
   id="path99" />
			<path
   class="st8"
   d="m -103.6,509.6 c 1,0 1.4,-0.5 1.4,-1.4 0,-1 -0.5,-1.4 -1.4,-1.4 -1,0 -1.4,0.5 -1.4,1.4 0,1 0.4,1.4 1.4,1.4 z"
   id="path101" />
			<path
   class="st8"
   d="m -103.3,515.4 c -1,0 -1.4,0.5 -1.4,1.4 0,1 0.5,1.4 1.4,1.4 1,0 1.4,-0.5 1.4,-1.4 0,-1 -0.4,-1.4 -1.4,-1.4 z"
   id="path103" />
			<path
   class="st8"
   d="m -135.4,513.3 c 0,-1 -0.5,-1.4 -1.4,-1.4 -1,0 -1.4,0.5 -1.4,1.4 0,1 0.5,1.4 1.4,1.4 1,0 1.4,-0.5 1.4,-1.4 z"
   id="path105" />
			<path
   class="st8"
   d="m -136.3,519.4 c -1,0 -1.4,0.5 -1.4,1.4 0,1 0.5,1.4 1.4,1.4 1,0 1.4,-0.5 1.4,-1.4 0,-0.9 -0.5,-1.4 -1.4,-1.4 z"
   id="path107" />
			<path
   class="st8"
   d="m -106.7,505.7 c 1,0 1.4,-0.5 1.4,-1.4 0,-1 -0.5,-1.4 -1.4,-1.4 -1,0 -1.4,0.5 -1.4,1.4 0,0.9 0.5,1.4 1.4,1.4 z"
   id="path109" />
			<path
   class="st8"
   d="m -133.3,495.4 c 1,0 1.4,-0.5 1.4,-1.4 0,-1 -0.5,-1.4 -1.4,-1.4 -1,0 -1.4,0.5 -1.4,1.4 0,0.9 0.5,1.4 1.4,1.4 z"
   id="path111" />
			<path
   class="st8"
   d="m -133.2,515.8 c -1,0 -1.4,0.5 -1.4,1.4 0,1 0.5,1.4 1.4,1.4 1,0 1.4,-0.5 1.4,-1.4 0.1,-0.9 -0.4,-1.4 -1.4,-1.4 z"
   id="path113" />
			<path
   class="st8"
   d="m -104.4,521 c 0,-1 -0.5,-1.4 -1.4,-1.4 -1,0 -1.4,0.5 -1.4,1.4 0,1 0.5,1.4 1.4,1.4 0.9,0 1.4,-0.5 1.4,-1.4 z"
   id="path115" />
			<path
   class="st8"
   d="m -100.4,519.5 c -1,0 -1.4,0.5 -1.4,1.4 0,1 0.5,1.4 1.4,1.4 1,0 1.4,-0.5 1.4,-1.4 0,-0.9 -0.5,-1.4 -1.4,-1.4 z"
   id="path117" />
			<path
   class="st8"
   d="m -103.4,522.9 c -1,0 -1.4,0.5 -1.4,1.4 0,1 0.5,1.4 1.4,1.4 1,0 1.4,-0.5 1.4,-1.4 0,-0.9 -0.4,-1.4 -1.4,-1.4 z"
   id="path119" />
			<path
   class="st8"
   d="m -97.9,515.4 c -1,0 -1.4,0.5 -1.4,1.4 0,1 0.5,1.4 1.4,1.4 1,0 1.4,-0.5 1.4,-1.4 0,-1 -0.4,-1.4 -1.4,-1.4 z"
   id="path121" />
			<path
   class="st8"
   d="m -92.2,518.2 c 1,0 1.4,-0.5 1.4,-1.4 0,-1 -0.5,-1.4 -1.4,-1.4 -1,0 -1.4,0.5 -1.4,1.4 0,0.9 0.5,1.4 1.4,1.4 z"
   id="path123" />
			<path
   class="st8"
   d="m -94.7,519.5 c -1,0 -1.4,0.5 -1.4,1.4 0,1 0.5,1.4 1.4,1.4 1,0 1.4,-0.5 1.4,-1.4 0,-0.9 -0.5,-1.4 -1.4,-1.4 z"
   id="path125" />
			<path
   class="st8"
   d="m -109,509.6 c 1,0 1.4,-0.5 1.4,-1.4 0,-1 -0.5,-1.4 -1.4,-1.4 -1,0 -1.4,0.5 -1.4,1.4 0,1 0.5,1.4 1.4,1.4 z"
   id="path127" />
			<path
   class="st8"
   d="m -108.8,522.9 c -1,0 -1.4,0.5 -1.4,1.4 0,1 0.5,1.4 1.4,1.4 1,0 1.4,-0.5 1.4,-1.4 0.1,-0.9 -0.4,-1.4 -1.4,-1.4 z"
   id="path129" />
			<path
   class="st8"
   d="m -109.2,501.3 c 0,-1 -0.5,-1.4 -1.4,-1.4 -1,0 -1.4,0.5 -1.4,1.4 0,1 0.5,1.4 1.4,1.4 0.9,0 1.4,-0.5 1.4,-1.4 z"
   id="path131" />
			<path
   class="st8"
   d="m -136.8,496.5 c -1,0 -1.4,0.5 -1.4,1.4 0,1 0.5,1.4 1.4,1.4 1,0 1.4,-0.5 1.4,-1.4 0,-1 -0.4,-1.4 -1.4,-1.4 z"
   id="path133" />
			<path
   class="st8"
   d="m -105.9,513.9 c 1,0 1.4,-0.5 1.4,-1.4 0,-1 -0.5,-1.4 -1.4,-1.4 -1,0 -1.4,0.5 -1.4,1.4 0,1 0.4,1.4 1.4,1.4 z"
   id="path135" />
			<path
   class="st8"
   d="m -163.7,480.3 c 0,-1 -0.5,-1.4 -1.4,-1.4 -1,0 -1.4,0.5 -1.4,1.4 0,1 0.5,1.4 1.4,1.4 0.9,0 1.4,-0.4 1.4,-1.4 z"
   id="path137" />
			<path
   class="st8"
   d="m -155.7,488.7 c -1,0 -1.4,0.5 -1.4,1.4 0,1 0.5,1.4 1.4,1.4 1,0 1.4,-0.5 1.4,-1.4 0,-1 -0.4,-1.4 -1.4,-1.4 z"
   id="path139" />
			<path
   class="st8"
   d="m -137,491.3 c 1,0 1.4,-0.5 1.4,-1.4 0,-1 -0.5,-1.4 -1.4,-1.4 -1,0 -1.4,0.5 -1.4,1.4 0,0.9 0.4,1.4 1.4,1.4 z"
   id="path141" />
			<path
   class="st8"
   d="m -143.8,491.3 c 1,0 1.4,-0.5 1.4,-1.4 0,-1 -0.5,-1.4 -1.4,-1.4 -1,0 -1.4,0.5 -1.4,1.4 0,0.9 0.4,1.4 1.4,1.4 z"
   id="path143" />
			<path
   class="st8"
   d="m -140.4,495.4 c 1,0 1.4,-0.5 1.4,-1.4 0,-1 -0.5,-1.4 -1.4,-1.4 -1,0 -1.4,0.5 -1.4,1.4 0,0.9 0.4,1.4 1.4,1.4 z"
   id="path145" />
			<path
   class="st8"
   d="m -160.5,488.9 c -1,0 -1.4,0.5 -1.4,1.4 0,1 0.5,1.4 1.4,1.4 1,0 1.4,-0.5 1.4,-1.4 0,-0.9 -0.5,-1.4 -1.4,-1.4 z"
   id="path147" />
			<path
   class="st8"
   d="m -81.7,513.8 c -1,0 -1.4,0.5 -1.4,1.4 0,1 0.5,1.4 1.4,1.4 1,0 1.4,-0.5 1.4,-1.4 0,-0.9 -0.5,-1.4 -1.4,-1.4 z"
   id="path149" />
			<path
   class="st8"
   d="m -161.3,485.6 c 0,-1 -0.5,-1.4 -1.4,-1.4 -1,0 -1.4,0.5 -1.4,1.4 0,1 0.5,1.4 1.4,1.4 0.9,0 1.4,-0.5 1.4,-1.4 z"
   id="path151" />
			<path
   class="st8"
   d="m -157.7,487.3 c 1,0 1.4,-0.5 1.4,-1.4 0,-1 -0.5,-1.4 -1.4,-1.4 -1,0 -1.4,0.5 -1.4,1.4 0,1 0.5,1.4 1.4,1.4 z"
   id="path153" />
			<path
   class="st8"
   d="m -160.6,483.3 c 1,0 1.4,-0.5 1.4,-1.4 0,-1 -0.5,-1.4 -1.4,-1.4 -1,0 -1.4,0.5 -1.4,1.4 -0.1,0.9 0.4,1.4 1.4,1.4 z"
   id="path155" />
			<path
   class="st8"
   d="m -147.2,495.4 c 1,0 1.4,-0.5 1.4,-1.4 0,-1 -0.5,-1.4 -1.4,-1.4 -1,0 -1.4,0.5 -1.4,1.4 -0.1,0.9 0.4,1.4 1.4,1.4 z"
   id="path157" />
			<path
   class="st8"
   d="m -157.9,493.6 c -1,0 -1.4,0.5 -1.4,1.4 0,1 0.5,1.4 1.4,1.4 1,0 1.4,-0.5 1.4,-1.4 0,-0.9 -0.4,-1.4 -1.4,-1.4 z"
   id="path159" />
			<path
   class="st8"
   d="m -139,501.6 c 0,-1 -0.5,-1.4 -1.4,-1.4 -1,0 -1.4,0.5 -1.4,1.4 0,1 0.5,1.4 1.4,1.4 0.9,0.1 1.4,-0.4 1.4,-1.4 z"
   id="path161" />
			<path
   class="st8"
   d="m -143.6,504.2 c -1,0 -1.4,0.5 -1.4,1.4 0,1 0.5,1.4 1.4,1.4 1,0 1.4,-0.5 1.4,-1.4 0,-1 -0.4,-1.4 -1.4,-1.4 z"
   id="path163" />
			<path
   class="st8"
   d="m -143.6,496.5 c -1,0 -1.4,0.5 -1.4,1.4 0,1 0.5,1.4 1.4,1.4 1,0 1.4,-0.5 1.4,-1.4 0,-1 -0.4,-1.4 -1.4,-1.4 z"
   id="path165" />
			<path
   class="st8"
   d="m -94.8,511.1 c -1,0 -1.4,0.5 -1.4,1.4 0,1 0.5,1.4 1.4,1.4 1,0 1.4,-0.5 1.4,-1.4 0,-0.9 -0.5,-1.4 -1.4,-1.4 z"
   id="path167" />
			<path
   class="st8"
   d="m -140,515.8 c -1,0 -1.4,0.5 -1.4,1.4 0,1 0.5,1.4 1.4,1.4 1,0 1.4,-0.5 1.4,-1.4 0.1,-0.9 -0.4,-1.4 -1.4,-1.4 z"
   id="path169" />
			<path
   class="st8"
   d="m -149.2,504.2 c -1,0 -1.4,0.5 -1.4,1.4 0,1 0.5,1.4 1.4,1.4 1,0 1.4,-0.5 1.4,-1.4 0,-1 -0.5,-1.4 -1.4,-1.4 z"
   id="path171" />
			<path
   class="st8"
   d="m -143.6,511.8 c -1,0 -1.4,0.5 -1.4,1.4 0,1 0.5,1.4 1.4,1.4 1,0 1.4,-0.5 1.4,-1.4 0,-0.9 -0.4,-1.4 -1.4,-1.4 z"
   id="path173" />
			<path
   class="st8"
   d="m -148.2,497.9 c 0,-1 -0.5,-1.4 -1.4,-1.4 -1,0 -1.4,0.5 -1.4,1.4 0,1 0.5,1.4 1.4,1.4 0.9,0 1.4,-0.5 1.4,-1.4 z"
   id="path175" />
			<path
   class="st8"
   d="m -147.2,500.2 c -1,0 -1.4,0.5 -1.4,1.4 0,1 0.5,1.4 1.4,1.4 1,0 1.4,-0.5 1.4,-1.4 0,-0.9 -0.5,-1.4 -1.4,-1.4 z"
   id="path177" />
			<path
   class="st8"
   d="m -144.6,509.5 c 0,-1 -0.5,-1.4 -1.4,-1.4 -1,0 -1.4,0.5 -1.4,1.4 0,1 0.5,1.4 1.4,1.4 0.9,0.1 1.4,-0.4 1.4,-1.4 z"
   id="path179" />
		</g><g
     id="g185">
			<path
   class="st7"
   d="m -102,382.2 c 1.2,0.5 2.3,0.7 2.9,0.7 1.5,0 3,-0.7 8,-3.5 6.4,-3.6 6.4,-3.6 8.7,-5.2 -0.1,-3.1 -0.4,-4.1 -1.7,-6.4 -3.3,0.9 -8.7,1.9 -11.1,1.9 l -1.3,-0.1 -0.3,-0.5 c 3.7,-1.4 8.3,-3.6 12.2,-5.6 6.4,-3.5 6.8,-3.7 6.6,-4.9 0.1,-0.6 0.2,-0.8 0.5,-1.2 l 0.5,-0.1 c 1.3,0.4 2,0.8 2.7,1.7 1.6,1.8 2.8,4.1 2.8,5.5 0,1.1 -0.7,1.4 -3.2,1.6 -0.7,0.1 -2.4,0.4 -5.2,1 2.3,1.4 3,2.3 3,4.5 v 0.3 c 0.5,-0.3 0.9,-0.5 1.1,-0.5 1.5,0 3.8,2.2 3.8,3.6 0,0.7 -0.5,1.2 -2.2,1.9 -1.1,0.5 -2,1 -4.3,2.6 1,1.1 1.3,1.9 1.3,2.9 0,1 0,1 -0.9,4.4 l -0.5,1.2 -0.3,1 c 0.9,-0.4 2,-1.5 5.2,-5.8 l 0.4,0.5 c -0.5,2.5 -2.9,6.3 -6.7,10.5 -0.2,1.4 -0.2,2.5 -0.2,3.1 0,0.8 0,0.8 0.6,8.3 0.2,1.6 0.2,3 0.2,4 0,2 -1,4.4 -1.9,4.4 -0.5,0 -1.5,-1.1 -2.1,-2.3 -0.6,-1.2 -0.9,-2.4 -0.9,-4 0,-1 0.1,-2.3 0.2,-3.7 0.2,-1.6 0.2,-2.7 0.2,-3.5 l -0.1,-1.9 c -1.1,0.9 -2.1,1.8 -2.4,2 -1.4,1.1 -2.3,1.9 -2.5,2.1 l -1.2,1.1 c -0.5,0.5 -0.9,0.7 -1.2,0.7 -0.6,0 -0.7,-0.2 -1.3,-1.7 -1.1,-2.9 -1.1,-2.9 -1.1,-3.7 0,-0.9 0.2,-1.6 0.6,-2.3 0.2,-0.4 0.5,-0.5 2,-1.2 4.9,-2.9 8.3,-8.5 8.2,-13.5 -2.1,1.7 -2.1,1.7 -7.2,5.5 -2.3,1.8 -3.4,2.3 -4.4,2.3 -1.2,0 -4.1,-1.6 -5.9,-3.3 -1.3,-1.3 -1.7,-2.2 -1.9,-4.1 z m 23.7,21.7 c 6.8,-1.3 10.4,-5.1 12.8,-13.2 1.4,-4.7 2.2,-8.9 2.8,-15.2 0.5,-4.6 1,-11.6 1,-13.3 0,-2.3 -0.2,-2.7 -2.3,-3.7 l -0.5,-0.4 c 0.9,-2.8 1.7,-4 2.8,-4 2.3,0 4.5,4.4 4.5,8.9 0,0.9 -0.1,2.1 -0.2,3.5 -0.3,3 -0.4,4.2 -0.5,6.6 3.4,0.1 4.9,0.5 7,1.4 2.4,1.1 3.9,3.1 3.9,5.1 0,1.6 -1.3,2.6 -3.1,2.6 -1.6,0 -3.6,-1.2 -6,-3.4 -1.3,-1.2 -1.6,-1.3 -2.6,-1.3 -0.5,4 -0.8,6.2 -1.7,10.6 0.9,0.6 1.8,1.2 2.1,1.4 0.3,0.2 1.5,1.2 3.3,2.7 5.2,4.2 12.6,8.9 17.8,11.2 3,1.3 4.4,2.7 4.4,4.3 0,0.5 0,0.5 -4.3,0.9 l -2.3,-0.1 -4.2,-0.2 c -3.2,0.3 -8,-4.1 -14.2,-13 -1.6,-2.2 -1.7,-2.4 -3.3,-3.6 -1.3,5.1 -2,6.8 -3.4,8.7 -2.1,2.9 -6.2,4.9 -10,4.9 -1.2,0 -2.1,-0.2 -4,-0.8 z m 14,-25 c -0.2,0.7 -0.4,1.2 -0.5,1.5 -0.1,0.3 -0.5,1.2 -1.2,2.7 -0.9,1.7 -1.2,2.6 -2.5,6.9 -0.7,2.3 -1.5,3.4 -2.3,3.4 -0.9,0 -2.4,-3.7 -2.4,-5.8 0,-1 0,-1 1.6,-5 0.2,-0.6 0.3,-1.2 0.3,-1.8 0,-1 -0.2,-1.9 -1,-3.7 l 0.3,-0.5 c 1.7,0.1 2.7,0.5 3.6,1.9 1,1.6 1.1,1.6 1.7,1.6 0.2,0 0.4,0 0.5,-0.1 1.1,-1.2 1.1,-1.2 1.6,-1.5 z"
   id="path183" />
		</g><path
     class="st10"
     d="m -141.7,382.5 c 0,-5 -3.1,-8.3 -9.2,-10 v -0.3 c 5.4,-1.9 8.1,-5.1 8.1,-9.7 0,-3.8 -1.9,-6.7 -5.7,-8.6 -2.4,-1.1 -5.2,-1.6 -8.5,-1.6 -4,0 -7.2,1 -9.8,3 -2.1,1.7 -3.2,3.7 -3.2,5.9 0,2.9 1.4,4.3 4.1,4.3 2.6,0 3.8,-1.2 3.8,-3.5 0,-1.7 -0.9,-2.8 -2.6,-3.4 1.8,-2 4.3,-3 7.6,-3 5.5,0 8.2,2.3 8.2,6.9 0,5.6 -3,8.5 -9,8.5 h -4 v 3.4 h 4 c 6.7,0 10,2.6 10,7.9 0,5.4 -3.3,8.1 -10,8.1 -4,0 -6.6,-1 -7.8,-3.1 1.8,-0.4 2.7,-1.5 2.7,-3.3 0,-2.3 -1.2,-3.5 -3.6,-3.5 -3,0 -4.5,1.5 -4.5,4.5 0,2.7 1.4,5 4.3,6.8 2.6,1.5 5.6,2.3 9.2,2.3 4.2,0 7.7,-0.8 10.4,-2.4 3.7,-2.1 5.5,-5.1 5.5,-9.2 z"
     id="path187" /></g>

</svg>
