<?xml version="1.0" encoding="UTF-8" standalone="no"?>
<!-- Generator: Adobe Illustrator 19.0.0, SVG Export Plug-In . SVG Version: 6.00 Build 0)  -->

<svg
   version="1.1"
   id="svg2985"
   x="0px"
   y="0px"
   viewBox="-192 293.9 210 255"
   style="enable-background:new -192 293.9 210 255;"
   xml:space="preserve"
   sodipodi:docname="bamboo.svg"
   inkscape:version="1.1.2 (0a00cf5339, 2022-02-04)"
   xmlns:inkscape="http://www.inkscape.org/namespaces/inkscape"
   xmlns:sodipodi="http://sodipodi.sourceforge.net/DTD/sodipodi-0.dtd"
   xmlns="http://www.w3.org/2000/svg"
   xmlns:svg="http://www.w3.org/2000/svg"><defs
   id="defs1071">
	
	

		
			<filter
   width="1.0183963"
   height="1.0200796"
   y="-0.010039815"
   x="-0.0091981534"
   id="filter3970-5"
   color-interpolation-filters="sRGB">
			<feGaussianBlur
   stdDeviation="0.12800763"
   id="feGaussianBlur3972-8" />
		</filter>
		
		
		
		
	</defs><sodipodi:namedview
   id="namedview1069"
   pagecolor="#ffffff"
   bordercolor="#666666"
   borderopacity="1.0"
   inkscape:pageshadow="2"
   inkscape:pageopacity="0.0"
   inkscape:pagecheckerboard="0"
   showgrid="false"
   inkscape:zoom="3.2156863"
   inkscape:cx="109.77439"
   inkscape:cy="60.17378"
   inkscape:window-width="1920"
   inkscape:window-height="1043"
   inkscape:window-x="1920"
   inkscape:window-y="0"
   inkscape:window-maximized="1"
   inkscape:current-layer="svg2985" />
<style
   type="text/css"
   id="style1013">
	.st0{enable-background:new    ;}
	.st1{fill:#005F00;}
	.st2{fill:#CDDACD;}
	.st3{fill:#FFFFFF;}
	.st4{fill:url(#rect3008_1_);}
	.st5{filter:url(#filter3970-5);}
	.st6{fill:url(#SVGID_1_);}
	.st7{fill:#038249;}
	.st8{fill:#BF3718;}
	.st9{fill:#2A3B92;}
</style>
<g
   id="g4146"
   transform="translate(39.768324,209.71794)">
		</g><g
   id="g848"
   transform="matrix(1.1038963,0,0,1.1038963,7.5386242,-40.683096)"><g
     id="g1058"
     transform="matrix(1.2492614,0,0,1.2492614,43.845088,-132.95606)">
			<path
   class="st7"
   d="m -86.8,468.2 v -5.4 c -1.7,-0.6 -3.9,-1.1 -6.5,-1.5 -0.5,-4.3 -3.7,-9.8 -9.6,-16.6 -5.2,-5.9 -11.4,-10.5 -18.5,-13.7 l 14.2,14 h -0.3 c -1,-0.9 -2.1,-1.6 -3.2,-2.3 -1.6,-1 -3.2,-1.4 -4.8,-1.4 -0.3,0 -1.2,0.1 -2.7,0.4 -1.5,0.3 -2.3,0.4 -2.4,0.4 -0.6,0 -2.1,-0.7 -4.4,-2.2 1.4,-0.6 2.6,-1.6 3.6,-3.1 1,-1.4 0.3,-2.9 -2.1,-4.6 -2.6,-1.8 -6.4,-1.3 -11.4,1.6 -5,2.9 -7.6,4.3 -8,4.3 -0.1,0 -0.7,-0.1 -1.7,-0.4 -1,-0.3 -1.8,-0.4 -2.4,-0.4 -1.8,0 -3.9,0.8 -6.2,2.4 -4.1,3 -7.1,5.6 -8.9,7.7 -2.5,3.1 -7.2,8.8 -13.8,17 6.2,-0.7 12.6,-4.7 19.3,-12.1 4,-4.5 7.7,-8.1 11.3,-10.8 l -25.5,30.3 c 7.4,-2 18.2,-9.8 32.4,-23.4 5.2,-4.7 8.4,-7 9.8,-7 0.8,0 1.9,0.7 3.3,2 -17.9,7.8 -30.5,20.4 -37.7,37.8 7.6,-8.2 15.9,-14.4 25,-18.6 2.3,-1 4.1,-1.7 5.4,-2.3 8.9,-3.7 15.9,-6.5 20.9,-8.6 0.9,-0.4 1.7,-0.9 2.3,-1.6 0.4,-0.5 1,-0.6 1.8,-0.3 0.8,0.3 1.3,0.5 1.7,0.5 0.5,0 1,-0.3 1.5,-0.9 3,1.6 5.4,5.3 7.3,11.2 -2.6,-0.5 -5.9,-0.8 -10,-0.8 -4.7,0 -10,0.5 -16,1.6 -6,1.1 -14.8,5.4 -26.4,13.1 -11,7.5 -17.7,12.3 -20,14.2 -2.3,2 -3.2,3.4 -2.7,4.3 0.4,1.3 2.1,0.7 5.3,-1.9 l 4.8,-3.7 c -6.7,8.5 -10.6,18.1 -11.8,28.7 9.3,-2.1 17.5,-12.6 24.6,-31.6 l -1.8,6 c -4,14.6 -5,27.9 -2.8,39.9 4.8,-3.9 7.9,-8.2 9.2,-12.9 2,-7 2.8,-15.8 2.5,-26.5 -0.2,-6.5 -1.3,-10.1 -3.4,-10.8 0.1,-2.2 -0.5,-3.6 -1.6,-4.3 12,-7.3 20.5,-10.9 25.3,-10.9 h 2.3 c -0.5,2.2 0,4.4 1.4,6.6 2,2.9 5.8,7.1 11.5,12.4 5.1,4.9 8.5,12.9 10.2,24 2.9,-1.2 4.2,-6.3 3.9,-15.3 -0.4,-6.7 -2.5,-12.9 -6.5,-18.7 -2.7,-4.1 -7,-7.3 -12.8,-9.4 9.8,-0.1 18.1,1.1 25.1,3.6 z"
   id="path1040" />
			<path
   class="st7"
   d="m -62.5,484.4 c -3.5,2.5 -6.3,6.4 -8.6,11.9 l 0.3,8.1 c 1.8,0.6 3.7,0.2 5.6,-1.2 2.5,-1.8 6.2,-5.5 11,-11 4.3,-4.8 11.3,-7.9 20.8,-9.3 -0.9,-2.9 -5.2,-4.4 -13,-4.3 -5.6,0.1 -11,2 -16.1,5.8 z"
   id="path1042" />
			<path
   class="st7"
   d="m -135.5,475.9 c -1.6,3.9 -2.5,8.3 -2.8,13.4 -0.6,14.1 -1.6,26.6 -2.9,37.7 11.5,-7.8 17.9,-27.4 19.3,-58.8 -1.3,1.4 -2.9,2.6 -4.8,3.5 1.1,-1.8 1.8,-3.7 2.3,-5.5 -5.1,0.9 -8.8,4.2 -11.1,9.7 z"
   id="path1044" />
			<path
   class="st7"
   d="m -44.7,433.4 c -5.3,-10.8 -9.7,-16.8 -13.2,-18.1 -1.3,-0.5 -2.8,-0.8 -4.7,-0.9 -1.3,0.1 -3,0.2 -5,0.4 5.7,-2 11.4,-3.6 17.2,-4.5 9.2,-1.5 13.8,-2.4 13.9,-2.9 0.1,-0.5 -1.6,-0.5 -5.1,-0.2 -12,1.2 -22.5,3 -31.4,5.5 l 0.1,3.7 2.8,-0.8 c -0.1,0.9 0.1,1.5 0.6,1.8 1,0.6 1.6,1.4 1.9,2.5 1.9,7.2 7.2,15.7 15.8,25.6 4.3,4.8 11.1,7.8 20.4,9 -3.7,-3.2 -8.2,-10.3 -13.3,-21.1 z"
   id="path1046" />
			<path
   class="st7"
   d="m -73,477 c 0,-21 -0.4,-39 -1.1,-53.8 l -12.8,1 c 0.7,14.2 1.1,32.2 1.2,53.8 z"
   id="path1048" />
			<path
   class="st7"
   d="m -71.7,533.4 c 0,-21 -0.4,-39.3 -1.1,-54.9 l -12.8,1.1 c 0.7,14.9 1.1,32.8 1.1,53.8 z"
   id="path1050" />
			<path
   class="st8"
   d="m -46.4,352.3 -21.2,26.1 v 4.4 h 20.2 v 4 c 0,1.4 -0.2,2.3 -0.7,2.7 -0.6,0.7 -2.4,1 -5.4,1.1 v 3.1 h 17.1 v -3.1 c -2.3,-0.1 -3.8,-0.3 -4.5,-0.4 -1.1,-0.4 -1.6,-1.5 -1.6,-3.4 v -4 h 7.6 v -4.1 h -7.6 v -26.5 h -3.9 z m -1.1,26.5 h -15.4 l 15.4,-19.4 z"
   id="path1052" />
			<path
   class="st7"
   d="m -74.2,421.5 c 0,-21 -0.4,-39 -1.1,-53.8 l -12.8,1 c 0.7,14.2 1.1,32.2 1.2,53.8 z"
   id="path1054" />
			<path
   class="st7"
   d="m -88.4,349.6 c 0.1,5.5 0.1,11.4 0.1,17.6 l 12.7,-1 c 0,-5.9 0,-11.4 -0.1,-16.6 z"
   id="path1056" />
		</g><g
     id="g1062"
     transform="matrix(1.2492614,0,0,1.2492614,43.845088,-132.95606)">
			<path
   class="st9"
   d="m -160.7,361 c 0.4,-0.2 0.7,-0.2 0.8,-0.2 2.6,0 7.6,4.2 7.6,6.4 0,1 0,1 -2.2,3.4 -1.7,2.1 -2.6,3.1 -2.6,3.2 0,0.2 0.2,0.3 0.5,0.3 0.7,0 4.4,-1.4 7.2,-2.9 0.9,-0.4 1.6,-0.6 2,-0.6 1.6,0 3.7,2.8 3.7,4.8 0,1.3 -0.9,1.8 -3.7,1.9 -5.7,1.2 -8.8,2.3 -11.5,4.1 4.1,3.4 4.8,4.2 4.8,6.3 0,1 0,1 -0.7,7.5 -1.7,8.3 -1.7,8.3 -2.2,8.8 -0.2,0.2 -0.5,0.3 -0.6,0.3 -1,0 -4.5,-5.3 -4.5,-6.8 0,-0.5 0.5,-2 1.2,-4.3 0.5,-1.5 0.9,-3.4 0.9,-5.6 0,-3.2 -0.5,-3.9 -2.6,-4.2 -2.7,0.9 -3.8,1.5 -5.5,2.5 -1,0.6 -2,1.1 -2.6,1.1 -1.1,0 -1.9,-2.8 -1.9,-6.6 0,-1.2 0.4,-1.6 1.7,-2 2.9,-0.9 3.2,-1.1 5.9,-4.1 3.3,-3.6 5.1,-6.9 5.1,-9.1 0,-0.9 -0.2,-1.9 -1.2,-4 z m 20.5,-3.9 c 0.1,-1.9 1.6,-3.5 3.4,-3.5 1.9,0 3.1,0.9 4.8,3.2 1.4,2 2.1,3.7 2.1,5.1 0,1.5 -0.7,3.1 -3,6.7 -1.4,2.2 -2.3,3.9 -2.3,4.2 0,0.1 0.1,0.2 0.2,0.2 0.1,0 0.2,-0.1 0.5,-0.2 0.2,-0.1 0.9,-0.3 2.1,-0.7 2,-0.6 3.9,-1.2 5.8,-1.8 6.6,-1.2 6.6,-1.2 7.1,-1.2 3.1,0 6.9,3.2 6.9,5.9 0,0.8 -0.9,1.4 -1.9,1.4 -0.6,0 -1.6,-0.1 -2.7,-0.2 -1,-0.2 -2,-0.2 -3,-0.2 -2.2,0 -4,0.2 -8,1.2 1.9,1.6 2.7,2.9 2.7,4.1 0,0.5 -0.2,1.4 -0.5,2.7 -0.4,0.9 -0.6,3.7 -0.7,6.7 -0.3,14.7 -0.8,17.5 -3.4,22.3 -1.1,2.1 -2.3,3.7 -2.8,3.7 -0.4,0 -0.7,-0.7 -0.7,-1.6 0,-0.5 0.2,-1.2 0.2,-2.1 1,-6.2 1.6,-16.1 1.6,-26.1 0,-5 -0.2,-5.5 -3,-5.9 -0.6,0.2 -1.2,0.3 -1.4,0.4 l -1.3,0.8 c -1,0.6 -1.9,1.2 -3,1.7 -0.8,0.5 -1.2,0.7 -1.5,0.7 -0.9,0 -1.6,-1.4 -1.6,-3 0,-2.9 0.1,-3.1 2.3,-5.6 1.6,-2 2,-2.7 3.6,-8 1.5,-5 1.9,-6.9 1.9,-8.8 0,-1.1 -0.8,-2.1 -1.6,-2.1 -0.2,0 -0.9,0.2 -2.3,0.4 z"
   id="path1060" />
		</g></g>

</svg>
