<?xml version="1.0" encoding="UTF-8" standalone="no"?>
<!-- Generator: Adobe Illustrator 19.0.0, SVG Export Plug-In . SVG Version: 6.00 Build 0)  -->

<svg
   version="1.1"
   id="svg2985"
   x="0px"
   y="0px"
   viewBox="-192 293.9 210 255"
   style="enable-background:new -192 293.9 210 255;"
   xml:space="preserve"
   sodipodi:docname="orchid.svg"
   inkscape:version="1.1.2 (0a00cf5339, 2022-02-04)"
   xmlns:inkscape="http://www.inkscape.org/namespaces/inkscape"
   xmlns:sodipodi="http://sodipodi.sourceforge.net/DTD/sodipodi-0.dtd"
   xmlns="http://www.w3.org/2000/svg"
   xmlns:svg="http://www.w3.org/2000/svg"><defs
   id="defs1281">
	
	

		
			<filter
   width="1.0183963"
   height="1.0200796"
   y="-0.010039815"
   x="-0.0091981534"
   id="filter3970-5"
   color-interpolation-filters="sRGB">
			<feGaussianBlur
   stdDeviation="0.12800763"
   id="feGaussianBlur3972-8" />
		</filter>
		
		
		
		
		
	</defs><sodipodi:namedview
   id="namedview1279"
   pagecolor="#ffffff"
   bordercolor="#666666"
   borderopacity="1.0"
   inkscape:pageshadow="2"
   inkscape:pageopacity="0.0"
   inkscape:pagecheckerboard="0"
   showgrid="false"
   inkscape:zoom="3.2156863"
   inkscape:cx="114.43902"
   inkscape:cy="77.89939"
   inkscape:window-width="1866"
   inkscape:window-height="1009"
   inkscape:window-x="54"
   inkscape:window-y="34"
   inkscape:window-maximized="1"
   inkscape:current-layer="svg2985" />
<style
   type="text/css"
   id="style1235">
	.st0{enable-background:new    ;}
	.st1{fill:#005F00;}
	.st2{fill:#CDDACD;}
	.st3{fill:#FFFFFF;}
	.st4{fill:url(#rect3008_1_);}
	.st5{filter:url(#filter3970-5);}
	.st6{fill:url(#SVGID_1_);}
	.st7{fill:#2A3B92;}
	.st8{fill:#BF3718;}
	.st9{fill:#038249;}
</style>
<g
   id="g4146"
   transform="translate(39.768324,209.71794)">
		</g><g
   id="g3259"
   transform="matrix(1.3862807,0,0,1.3862807,56.757309,-186.48409)"><g
     id="g1264">
			<path
   class="st7"
   d="m -167,363.6 0.5,0.1 0.9,0.5 c 0.3,0.2 0.6,0.2 0.9,0.2 0.9,0 4.4,-1.1 8.6,-2.7 -0.5,-4 -0.5,-4.1 -2.6,-6 -0.6,-0.7 -0.9,-1.1 -0.9,-1.8 l 0.2,-0.3 c 0.5,-0.1 1,-0.2 1.2,-0.2 1.7,0 4,0.6 5,1.3 1,0.7 1.6,1.5 1.6,2 l -0.1,2.4 c 0,0.3 0.1,0.7 0.2,1.5 1.1,-0.2 2,-0.4 2.3,-0.5 1.9,-0.3 3.1,-0.6 3.3,-0.6 3.8,-0.5 4.6,-0.7 5.1,-1.2 0.6,-0.7 1.2,-3 1.2,-4.5 0,-0.5 -0.2,-1.3 -0.5,-2.1 -0.7,-1.9 -0.7,-2 -0.7,-2.8 l 0.1,-0.2 c 0.2,-0.1 0.4,-0.1 0.4,-0.1 0.5,0 4.1,1.2 5,1.7 1.6,0.8 2.4,1.6 2.4,2.4 0,0.2 -0.1,0.5 -0.3,0.9 -0.7,1.7 -0.9,2.3 -1.6,3.7 4.7,-0.9 6.4,-1.2 8.7,-1.2 3,0 5.4,1.3 5.4,3 0,0.9 -0.8,1.3 -3.3,1.7 -7.2,1 -7.2,1 -12.6,1.2 l -1.2,1.7 c -1.2,1.9 -1.5,2.1 -3.2,3.7 1.6,0.5 1.8,0.6 3.3,1 0.6,-0.2 1.1,-0.4 1.2,-0.5 l 1.6,-1.1 c 1.2,-0.8 5.9,-2 7.7,-2 2.7,0 6.4,2.8 6.4,4.9 0,0.3 -0.2,0.9 -0.4,1.8 -0.5,1.6 -0.9,4 -0.9,6.8 0,2.8 0.1,2.9 0.8,15.9 0.7,9.2 0.7,9.2 0.7,10.7 0,5.7 -2,12 -3.8,12 -0.5,0 -1,-0.4 -2,-1.6 -1.6,-1.8 -2,-2.3 -3.2,-3.3 -1.4,-1.2 -2.2,-1.9 -4.4,-4.1 l 0.1,-0.3 c 1.2,0.2 2.3,0.5 2.6,0.5 1.3,0.3 2.5,0.5 3.2,0.5 1.8,0 2.3,-1.6 2.3,-6.9 0,-5.3 -0.3,-13.4 -0.8,-20.2 -4.3,1.1 -4.5,1.1 -8,1.2 -2.5,0.2 -3,0.3 -3.4,1.2 1.4,0.9 2,1.5 2,1.8 0,0.4 -0.5,0.8 -1.2,1 -0.2,0.1 -0.2,0.1 -2,0.3 -0.8,0.1 -1.2,0.2 -2.4,0.7 v 1.5 c 3.6,-0.8 5.4,-1.2 5.9,-1.2 2,0 4.8,1.6 4.8,2.7 0,0.5 0,0.5 -1.1,2.3 -1.7,4.4 -1.7,4.4 -2.2,5.1 -0.2,0.2 -0.7,0.6 -0.9,0.6 l -3,-0.2 c -0.1,0 -0.5,0.1 -0.9,0.2 -0.5,0.2 -1.4,0.5 -2.5,0.7 -0.2,1.6 -0.2,3.1 -0.2,3.7 -0.1,5.1 -0.2,6.3 -1.2,8 -0.3,0.5 -0.5,0.8 -0.8,0.8 -0.4,0 -0.6,-0.3 -1.6,-1.6 -0.6,-0.8 -2,-2.3 -3.8,-4.4 l 0.2,-0.2 c 0.9,0.2 1.7,0.3 2.3,0.3 1.1,0 1.1,0 1.3,-5.5 -2.3,0.5 -2.5,0.5 -4.6,1.7 -0.5,0.2 -0.9,0.4 -1.1,0.4 -0.7,0 -1.7,-0.9 -2.1,-1.7 -0.9,-2 -1.7,-5.7 -1.7,-7.1 0,-0.6 0.2,-1 0.7,-1.6 h 0.2 c 0.5,0.9 0.7,1.1 1.2,1.8 3,-2.2 3.2,-2.3 7.6,-3.9 v -1.5 c -1.6,0.5 -2,0.5 -3.3,1.2 -0.6,0.2 -1,0.4 -1.3,0.4 -0.6,0 -1.2,-0.4 -2.8,-1.8 l -0.1,-0.2 c 0.5,-0.4 0.7,-0.6 0.9,-0.7 0.5,-0.2 1.8,-0.7 3.9,-1.4 0.4,-0.1 1.5,-0.5 2.6,-1 -0.5,-1.2 -0.6,-1.2 -1.6,-2 -0.6,0.2 -0.8,0.3 -1.3,0.8 -0.3,1.5 -0.6,1.7 -2.3,1.7 -1.6,1.3 -2.3,1.9 -3.7,3 -0.9,0.6 -1.6,1 -2.2,1 -0.6,0 -1.7,-0.9 -2.5,-1.9 -0.4,-0.5 -0.7,-0.9 -0.9,-0.9 -0.2,0 -0.4,0.6 -0.4,1.4 0.1,0.8 0,2.3 -0.2,4.6 -0.2,1.8 -0.2,3.3 -0.2,4.4 V 408 c 0,3.2 -0.5,5.2 -1.2,5.2 -1.4,0 -3,-4.8 -3,-9 0,-1.2 0.1,-2.7 0.3,-4.6 0.8,-7.6 0.9,-10.2 0.9,-13.3 0,-1.6 -0.1,-3.3 -0.2,-4.8 -0.1,-1.2 -0.2,-2.4 -0.2,-3.1 0,-1.7 0.4,-2.6 1.8,-3.8 l 0.2,-0.1 c 0.1,0.2 0.2,0.4 0.2,0.5 0.1,0.5 0.2,0.6 0.5,0.6 0.2,0 0.4,-0.2 0.6,-0.5 1.3,-2 1.3,-2 3.9,-3.1 4.6,-2 5.3,-2.2 6.6,-2.2 2.1,0 4,1.4 4,3 0,0.8 0,0.8 -0.9,3.2 -0.3,0.8 -0.5,2.1 -0.5,4.4 l 0.2,0.2 c 0.9,-0.5 1.7,-1.1 2,-1.3 0.7,-0.5 1.2,-0.9 1.4,-1 0.1,0 0.2,-0.1 0.5,-0.2 -0.2,1.2 -0.2,1.3 -1.6,3.2 -0.2,0.3 -0.4,0.5 -0.4,0.6 0,0.4 0.1,0.4 2.2,1 0.9,0.2 1.3,0.6 2.1,1.7 h 1.6 c -1,-2.2 -1.4,-3.6 -1.4,-5 V 373 c 0,-2.9 -0.9,-4.6 -2.5,-4.6 -0.5,0 -0.9,0.2 -1.5,0.4 -0.9,0.3 -1.6,0.5 -2,0.5 -0.1,0 -0.2,0 -0.5,-0.1 l -0.1,-0.4 c 4.1,-3.1 4.8,-4 5.6,-6.9 -1.8,-0.4 -2.2,-0.4 -2.9,-0.4 -0.9,0 -1.5,0.2 -3.1,1.2 -1.8,1.1 -3,1.9 -3.6,2.2 -0.5,3.4 -0.9,4.1 -1.7,4.1 -0.6,0 -1.2,-0.6 -2.1,-2.5 -2,0.5 -2.1,0.5 -6.7,2.7 -1,0.5 -2,0.8 -2.5,0.8 -1.4,0 -3.2,-2.9 -3.2,-5.1 0,-0.2 0.1,-0.6 0.2,-1.1 z m 15.5,16.8 c -1.6,0.9 -2.9,1.7 -3.4,2 -1.6,1.1 -1.8,1.1 -3.6,1.5 l -0.1,-0.4 c 1.5,-1.2 2,-1.9 2,-2.5 0,-0.5 -0.4,-1.1 -1,-1.6 -1.2,-0.9 -1.2,-0.9 -1.9,-1.4 l 0.1,-0.2 c 0.9,-0.5 2.3,-0.8 4.6,-0.8 1.4,0 2,0.2 3.2,1.4 0.1,-1 0.2,-1.5 0.2,-2 0,-2.1 -0.2,-2.7 -1,-2.7 -0.4,0 -1.4,0.3 -2.8,1 -0.6,0.2 -1.1,0.4 -1.2,0.5 l -2.3,0.2 c -0.9,0.1 -1.4,1.2 -1.4,2.7 0,0.4 0,0.4 0.3,3.8 0.2,3 0.2,3 0.3,3.4 0.3,0.5 0.8,0.8 1.4,0.8 2,0 3.4,-0.6 6.6,-2.9 z m -2.6,22.3 c 1.2,1.7 1.7,2.3 2,2.3 0.3,0 2,-0.8 2.8,-1.2 l 0.1,0.4 c -0.2,0.4 -0.3,0.6 -0.4,0.7 l -1.5,2.7 c -1.1,2.2 -1.2,2.3 -1.6,2.3 -0.1,0 -0.1,0 -1.4,-1.3 -0.9,-0.9 -1.1,-1.5 -1.1,-2.7 0,-0.9 0.2,-1.6 0.7,-2.8 z m 6.3,-8.7 c -0.5,0.2 -1.1,0.3 -1.8,0.5 -1.3,0.2 -1.9,0.8 -1.9,2 0,1.7 0.7,3.3 1.5,3.3 0.5,0 3.3,-0.7 3.9,-1 0.9,-0.4 1.1,-0.8 1.1,-1.9 -0.9,0.5 -1.6,0.7 -2,0.7 -0.5,0 -0.8,-0.2 -2.1,-0.8 -0.5,-0.2 -0.5,-0.2 -0.6,-0.6 l 0.1,-0.3 c 2.2,-0.6 3.7,-1.2 4.7,-1.6 v -1 c -0.5,0.1 -0.9,0.1 -0.9,0.2 z m 6.5,3.4 c 1,-0.2 2,-0.4 2.4,-0.5 1.2,-0.2 1.7,-0.5 2,-1.1 0.5,-0.8 1.1,-2.9 1.1,-3.4 0,-0.6 -0.6,-1.2 -1.3,-1.2 -0.4,0 -1,0.1 -1.7,0.3 -0.5,0.2 -1.4,0.4 -2.6,0.6 l 0.2,1.2 c 0.3,-0.1 0.7,-0.1 0.9,-0.2 0.5,-0.2 0.9,-0.2 1,-0.2 0.9,0 1.6,0.8 1.6,1.6 0,0.5 -0.2,0.8 -0.5,0.9 -0.2,0.1 -0.2,0.1 -1.6,0.1 -0.5,0 -0.7,0.1 -1.6,0.3 z m 2.3,2.9 h 1 c 0.8,0 2.8,0.5 4.3,1 1.5,0.5 2.4,2 2.4,3.6 0,0.9 -0.6,1.7 -1.4,1.7 -0.9,0 -1.6,-0.5 -3.5,-2.6 l -1,-1.2 c -0.5,-0.5 -1.2,-1.3 -2.2,-2.4 z m 12.3,-24.5 c 0,-0.3 -0.1,-0.4 -0.2,-0.4 -0.2,0 -0.4,0.1 -0.6,0.2 -0.6,0.2 -5.3,0.8 -6.3,0.8 -0.6,0 -1.5,-0.1 -2.8,-0.2 -0.2,1.6 -0.2,1.9 -0.2,3.8 2.4,-0.1 2.4,-0.1 5.5,-0.6 0.9,-0.2 1.5,-0.2 2,-0.2 0.2,0 1.1,0.1 2.8,0.2 -0.1,-1.1 -0.2,-1.7 -0.2,-2.5 -0.1,-0.3 -0.1,-0.7 0,-1.1 z m -9.8,-2.3 c 1.2,-0.2 2.4,-0.3 2.9,-0.4 1.8,-0.4 3.2,-0.5 3.8,-0.5 0.7,0 1.6,0.2 3,0.9 v -2.3 c 0,-1.6 -0.5,-2.3 -1.7,-2.3 -0.6,0 -1.5,0.1 -2.3,0.3 -1.2,0.3 -2,0.5 -2.6,0.5 h -1.7 c -0.4,0 -0.7,0.1 -1.2,0.3 v 0.4 c -0.2,2.3 -0.2,2.3 -0.2,2.7 z"
   id="path1262" />
		</g><path
     class="st8"
     d="m -43.2,438.6 c -7.7,-9.8 -16.7,-14.7 -27,-14.7 -7.1,0 -12.6,3.5 -16.6,10.4 -3.6,-15.4 -9.3,-23.1 -17.1,-23.2 -7.8,0.1 -13.6,7.8 -17.1,23.2 -4,-7 -9.5,-10.4 -16.6,-10.4 -10.3,0 -19.3,4.9 -27,14.7 -7.2,9.1 -10.8,18.9 -10.8,29.3 0,8.9 3.1,17.8 9.2,26.5 6.8,9.7 14.6,14.5 23.3,14.5 5.3,0 9.4,-2.7 12.1,-8.2 2.3,-5.1 4.7,-10.1 7,-15.1 3.3,-6.9 6.2,-10.3 8.7,-10.3 1.8,0 2.7,1.3 2.6,3.9 0.4,3.1 1,4.5 2.3,5.1 0.6,0.3 0.5,1.3 0.7,2 0.7,-0.5 1.6,-0.8 2.7,-0.8 0,0 0.1,0 0.1,0 -0.1,-1.4 -0.6,-4.2 -1.5,-8.4 -1,-4.2 -3.3,-6.3 -6.9,-6.3 -4.5,0 -8.2,2.9 -11.1,8.7 -2.2,5.1 -4.4,10.1 -6.6,15.1 -2.7,4.9 -6.2,7.4 -10.3,7.4 -7.1,0 -13.3,-4 -18.5,-12 -4.7,-7.3 -7,-14.8 -7,-22.5 0,-8.7 3,-16.7 9,-24.1 6.2,-7.7 13.5,-11.5 22,-11.5 5.2,0 9.1,2 11.8,5.9 2.6,3.7 5.1,8.3 7.7,13.7 3.1,6.5 6,11.1 8.8,13.8 1.3,1.2 2.5,1.7 3.4,1.4 1,-0.3 1.2,-1.1 0.7,-2.3 -1.5,-3.4 -3.6,-8 -6.5,-13.8 -2.9,-5.9 -4.3,-9.9 -4.3,-12 0,-2.4 0.8,-5.4 2.4,-8.8 1.6,-3.5 3.3,-6.2 5.1,-8.2 1.8,-2 3.4,-3 4.8,-3 1.4,0 3,1 4.8,3 1.8,2 3.5,4.7 5.1,8.2 1.6,3.5 2.4,6.4 2.4,8.8 0,2.1 -1.4,6.1 -4.3,12 -2.9,5.9 -5.1,10.5 -6.5,13.8 -0.5,1.2 -0.3,2 0.7,2.3 1,0.3 2.1,-0.2 3.4,-1.4 2.8,-2.7 5.7,-7.3 8.8,-13.8 2.6,-5.4 5.1,-10 7.7,-13.7 2.6,-4 6.6,-5.9 11.8,-5.9 8.4,0 15.7,3.8 22,11.5 6,7.3 9,15.3 9,24.1 0,7.7 -2.3,15.2 -7,22.5 -5.2,8 -11.4,12 -18.5,12 -4.2,0 -7.6,-2.5 -10.3,-7.4 -2.2,-5 -4.4,-10 -6.6,-15.1 -2.9,-5.8 -6.6,-8.7 -11.1,-8.7 -3.6,0 -5.9,2.1 -6.9,6.3 -0.9,4.2 -1.5,7 -1.5,8.4 1.2,0 2.2,0.4 3,1 0,0 0.1,-1.5 0.5,-1.7 0.7,-0.3 1.8,-3.4 2.3,-5.6 -0.1,-2.6 0.8,-3.9 2.6,-3.9 2.5,0 5.4,3.4 8.7,10.3 2.3,5 4.7,10 7,15.1 2.7,5.5 6.7,8.2 12.1,8.2 8.7,0 16.5,-4.8 23.3,-14.5 6.2,-8.7 9.2,-17.5 9.2,-26.5 -0.4,-10.5 -4,-20.3 -11.2,-29.3 z"
     id="path1266" /><g
     id="g1272">
			<path
   class="st8"
   d="m -49.6,373.9 -2,1.6 c -6.7,5.1 -10.6,10.2 -11.9,15.3 v 2.5 h 27.9 l 1.3,-12.1 h -3.3 c -0.8,5 -2.7,7.5 -5.7,7.5 h -15.1 c 1.2,-3.9 4.3,-7.3 9.1,-10.1 l 2.4,-1.3 c 4.2,-2.3 7.1,-4.3 8.7,-5.9 2,-2 3,-4.7 3,-7.9 0,-4.2 -1.9,-7.5 -5.6,-9.7 -2.4,-1.2 -5.2,-1.9 -8.3,-1.9 -4.2,0 -7.7,1.2 -10.2,3.6 -2.1,2.1 -3.2,4.4 -3.2,7.1 0,3.2 1.4,4.8 4.3,4.8 2.5,0 3.7,-1.2 3.7,-3.5 0,-2.2 -1,-3.4 -2.9,-3.6 1.2,-3.1 3.8,-4.6 7.9,-4.6 5.3,0 7.9,2.5 7.9,7.4 0.2,3.1 -2.5,6.7 -8,10.8 z"
   id="path1268" />
			<path
   class="st9"
   d="m -86,512.7 c -2.2,4.9 -4.3,7.4 -6.3,7.4 -1.2,0 -1.8,-0.6 -1.8,-1.8 0,-1.5 1.3,-3.4 3.8,-5.4 2.6,-2.1 3.8,-4.5 3.8,-7.3 0,-1.4 -0.5,-2.8 -1.4,-4.3 -0.9,-1.5 -2.5,-2.7 -4.7,-3.6 1.4,0.1 2.7,-0.3 4,-1 1.5,-1 2.3,-2.1 2.3,-3.5 0,-1.8 -1.1,-4.4 -3.3,-8 -2.2,-3.6 -2.1,-5.6 0.3,-6 -0.4,-0.7 -1.1,-1.3 -2.1,-1.9 -1.7,-0.8 -3.1,-0.1 -4.2,2 0,-0.1 -0.4,0.4 -0.6,0.7 0.1,-0.2 0.2,-0.3 0.4,-0.5 -0.4,0.5 -0.6,1.1 -1,1.6 -0.9,2 -2.3,3.8 -4.5,4.2 0,0 0,0 0,0 0,0.1 0,0.2 0,0.3 h -5.5 c 0,-0.1 0,-0.2 0,-0.2 -0.2,0 -0.5,-0.1 -0.7,-0.1 -1,-0.2 -1.8,-0.8 -2.5,-1.5 -0.6,-0.5 -1.2,-1.2 -1.5,-2 -0.2,-0.4 -0.3,-0.8 -0.4,-1.1 -0.1,-0.2 -0.2,-0.4 -0.3,-0.6 -0.2,-0.3 -0.3,-0.5 -0.4,-0.8 -1.1,-2.1 -2.5,-2.7 -4.1,-1.9 -1,0.6 -1.6,1.2 -2.1,1.9 2.4,0.4 2.5,2.5 0.3,6 -2.2,3.6 -3.3,6.3 -3.3,8 0,1.4 0.8,2.6 2.3,3.5 1.2,0.7 2.6,1.1 4,1 -2.2,0.9 -3.8,2.1 -4.7,3.6 -0.9,1.5 -1.4,2.9 -1.4,4.3 0,2.8 1.3,5.2 3.8,7.3 2.6,2.1 3.8,3.9 3.8,5.4 0,1.2 -0.6,1.8 -1.8,1.8 -2,0 -4.1,-2.5 -6.3,-7.4 -1.8,-4.1 -3.3,-9.6 -4.5,-16.5 -1.2,5.1 -1.9,8.6 -1.9,10.3 0,4.9 1,9.4 3,13.6 2.6,5.5 6.2,8.2 10.9,8.2 3.3,0 6.8,-1.4 10.4,-4.2 3.7,2.8 7.1,4.2 10.4,4.2 4.7,0 8.3,-2.7 10.9,-8.2 2,-4.2 3,-8.7 3,-13.6 0,-1.8 -0.6,-5.2 -1.9,-10.3 -0.9,6.8 -2.4,12.3 -4.2,16.4 z m -9.7,-20.6 c 0.3,-1.8 0.1,-4.4 -0.4,-7.7 1.8,3.2 2.7,6 2.7,8.3 1.3,-0.2 1.8,-1.2 1.3,-3.1 -0.3,-1.1 -0.6,-2.2 -1,-3.4 -0.4,-1.1 -0.7,-1.9 -0.9,-2.4 -0.3,-0.9 -0.3,-1.6 0.1,-2.3 3,6.2 4.5,9.9 4.4,11.3 -0.1,1.2 -0.8,2 -2.1,2.6 -1.2,0.5 -3,0.6 -5.3,0.2 0.6,-1.4 1,-2.7 1.2,-3.5 z m -20.6,3.4 c -1.2,-0.5 -1.9,-1.4 -2.1,-2.6 -0.1,-1.4 1.4,-5.2 4.4,-11.3 0.4,0.7 0.4,1.4 0.1,2.3 -0.2,0.4 -0.5,1.2 -0.9,2.4 -0.4,1.1 -0.8,2.3 -1,3.4 -0.4,1.8 0,2.9 1.3,3.1 0.1,-2.3 1,-5.1 2.7,-8.3 -0.6,3.3 -0.7,5.9 -0.4,7.7 0.1,0.9 0.5,2.1 1.2,3.6 -2.3,0.3 -4,0.3 -5.3,-0.3 z m 22.3,29.9 c -3.4,0.1 -6.7,-2 -10,-6.3 -3.3,4.2 -6.6,6.3 -10,6.3 -3.3,-0.1 -5.8,-2 -7.5,-5.5 1.9,2 3.8,3 5.8,3 3.4,0 5.2,-1.2 5.2,-3.7 0,-2.3 -1.2,-4.7 -3.6,-7.2 -2.4,-2.5 -3.6,-4.6 -3.6,-6.3 0,-1.8 1.2,-3.6 3.5,-5.4 2.3,-1.8 5,-2.7 7.9,-2.7 -1.4,-0.8 -2.4,-2 -3,-3.7 -0.8,-2.5 -0.7,-4.3 0.2,-5.4 1,6.2 2.5,9.2 4.4,9 -1,-2.8 -1.6,-5.9 -1.9,-9.4 h 5.1 c -0.2,3.5 -0.8,6.7 -1.9,9.4 1.9,0.2 3.4,-2.8 4.4,-9 1,1.1 1,2.9 0.2,5.4 -0.6,1.7 -1.6,2.9 -3,3.7 2.9,0.1 5.6,1 7.9,2.7 2.3,1.8 3.5,3.6 3.5,5.4 0,1.7 -1.2,3.8 -3.6,6.3 -2.4,2.5 -3.6,4.9 -3.6,7.2 0,2.5 1.7,3.7 5.2,3.7 2,0 3.9,-1 5.8,-3 -1.6,3.5 -4.1,5.3 -7.4,5.5 z"
   id="path1270" />
		</g></g>

</svg>
