<?xml version="1.0" encoding="UTF-8" standalone="no"?>
<!-- Generator: Adobe Illustrator 19.0.0, SVG Export Plug-In . SVG Version: 6.00 Build 0)  -->

<svg
   version="1.1"
   id="svg2985"
   x="0px"
   y="0px"
   viewBox="-192 293.9 210 255"
   style="enable-background:new -192 293.9 210 255;"
   xml:space="preserve"
   sodipodi:docname="plum.svg"
   inkscape:version="1.1.2 (0a00cf5339, 2022-02-04)"
   xmlns:inkscape="http://www.inkscape.org/namespaces/inkscape"
   xmlns:sodipodi="http://sodipodi.sourceforge.net/DTD/sodipodi-0.dtd"
   xmlns="http://www.w3.org/2000/svg"
   xmlns:svg="http://www.w3.org/2000/svg"><defs
   id="defs1396">
	
	

		
			<filter
   width="1.0183963"
   height="1.0200796"
   y="-0.010039815"
   x="-0.0091981534"
   id="filter3970-5"
   color-interpolation-filters="sRGB">
			<feGaussianBlur
   stdDeviation="0.12800763"
   id="feGaussianBlur3972-8" />
		</filter>
		
		
		
		
	</defs><sodipodi:namedview
   id="namedview1394"
   pagecolor="#ffffff"
   bordercolor="#666666"
   borderopacity="1.0"
   inkscape:pageshadow="2"
   inkscape:pageopacity="0.0"
   inkscape:pagecheckerboard="0"
   showgrid="false"
   inkscape:zoom="3.2156863"
   inkscape:cx="96.091463"
   inkscape:cy="77.89939"
   inkscape:window-width="1866"
   inkscape:window-height="1009"
   inkscape:window-x="54"
   inkscape:window-y="34"
   inkscape:window-maximized="1"
   inkscape:current-layer="svg2985" />
<style
   type="text/css"
   id="style1340">
	.st0{enable-background:new    ;}
	.st1{fill:#005F00;}
	.st2{fill:#CDDACD;}
	.st3{fill:#FFFFFF;}
	.st4{fill:url(#rect3008_1_);}
	.st5{filter:url(#filter3970-5);}
	.st6{fill:url(#SVGID_1_);}
	.st7{fill:#2A3B92;}
	.st8{fill:#BF3718;}
</style>
<g
   id="g4146"
   transform="translate(39.768324,209.71794)">
		</g><g
   id="g3019"
   transform="matrix(1.3650626,0,0,1.3650626,57.423623,-182.29893)"><g
     id="g1383">
			<path
   class="st7"
   d="m -142.4,493.2 c -1.2,0 -2.3,0.4 -3.1,1.2 -0.8,0.8 -1.2,1.8 -1.2,3 0,1.2 0.4,2.2 1.2,3 0.8,0.8 1.8,1.2 3.1,1.2 1.2,0 2.1,-0.4 2.9,-1.2 0.8,-0.8 1.2,-1.8 1.2,-3 0,-1.2 -0.4,-2.2 -1.2,-3 -0.7,-0.8 -1.7,-1.2 -2.9,-1.2 z"
   id="path1367" />
			<path
   class="st7"
   d="m -138.7,443.6 c 0.8,-0.8 1.2,-1.8 1.2,-3 0,-1.2 -0.4,-2.2 -1.2,-3 -0.8,-0.8 -1.7,-1.2 -2.9,-1.2 -1.2,0 -2.3,0.4 -3.1,1.2 -0.8,0.8 -1.2,1.8 -1.2,3 0,1.2 0.4,2.2 1.2,3 0.8,0.8 1.8,1.2 3.1,1.2 1.2,0 2.2,-0.4 2.9,-1.2 z"
   id="path1369" />
			<path
   class="st7"
   d="m -87.2,428.5 c 1.2,0 2.1,-0.4 2.9,-1.2 0.8,-0.8 1.2,-1.8 1.2,-3 0,-1.2 -0.4,-2.2 -1.2,-3 -0.8,-0.8 -1.7,-1.2 -2.9,-1.2 -1.2,0 -2.3,0.4 -3.1,1.2 -0.8,0.8 -1.2,1.8 -1.2,3 0,1.2 0.4,2.2 1.2,3 0.8,0.8 1.8,1.2 3.1,1.2 z"
   id="path1371" />
			<path
   class="st8"
   d="m -45.1,487.4 c 5,-5 7.5,-11 7.5,-18.1 0,-7.1 -2.5,-13.1 -7.5,-18.1 -5,-5 -11,-7.5 -18.1,-7.5 -2.7,0 -4.3,0.1 -4.7,0.2 2,-2.7 3,-6.8 3,-12.3 0,-7 -2.5,-13.1 -7.5,-18.1 -5,-5 -11,-7.5 -18.1,-7.5 -7.1,0 -13.1,2.5 -18.1,7.5 -5,5 -7.5,9.9 -7.5,14.7 -3.8,-5.2 -10.1,-7.8 -18.8,-7.8 -7,0 -13.1,2.5 -18.1,7.5 -5,5 -7.5,11 -7.5,18.1 0,5.5 1.6,10.5 4.9,15.1 3.3,4.5 6.4,7.3 9.5,8.2 -3.1,1 -6.2,3.7 -9.5,8.2 -3.3,4.5 -4.9,9.6 -4.9,15.2 0,7 2.5,13 7.5,18 5,5 11,7.5 18.1,7.5 8.7,0 15,-2.6 18.8,-7.8 0,4.8 2.5,9.7 7.5,14.7 5,5.1 11,7.6 18.1,7.6 7.1,0 13.1,-2.5 18.1,-7.5 5,-5 7.5,-11 7.5,-18.1 0,-5.6 -1,-9.7 -3,-12.4 0.4,0.1 2,0.2 4.7,0.2 7.1,0 13.1,-2.5 18.1,-7.5 z m -29.9,6.1 c 3.1,2.2 4.6,6.8 4.6,13.6 0,5.6 -2,10.3 -5.9,14.2 -3.9,3.9 -8.7,5.9 -14.2,5.9 -5.6,0 -10.3,-2 -14.2,-5.9 -3.9,-3.9 -5.9,-8.7 -5.9,-14.2 0,-2.2 0.2,-4 0.7,-5.3 0.4,-1.4 -0.3,-2.3 -2.2,-2.8 -2.1,-0.8 -3.6,0 -4.4,2.4 -0.8,2.4 -3,4.9 -6.5,7.5 -3.6,2.6 -7.5,3.8 -11.8,3.8 -5.6,0 -10.3,-1.9 -14.2,-5.8 -3.9,-3.9 -5.9,-8.6 -5.9,-14.2 0,-5.6 2,-10.3 5.9,-14.3 3.9,-4 7.5,-5.9 10.7,-5.9 3.2,0 4.7,-1.1 4.6,-3.2 0.1,-2.1 -1.4,-3.2 -4.6,-3.2 -3.2,0 -6.7,-2 -10.7,-5.9 -3.9,-3.9 -5.9,-8.7 -5.9,-14.2 0,-5.6 2,-10.3 5.9,-14.2 3.9,-3.9 8.7,-5.9 14.2,-5.9 4.3,0 8.3,1.3 11.8,3.8 3.6,2.6 5.7,5.1 6.5,7.5 0.8,2.4 2.3,3.2 4.4,2.4 1.9,-0.5 2.6,-1.4 2.2,-2.8 -0.4,-1.4 -0.7,-3.1 -0.7,-5.2 0,-5.6 2,-10.3 5.9,-14.2 3.9,-3.9 8.7,-5.9 14.2,-5.9 5.6,0 10.3,2 14.2,5.9 3.9,3.9 5.9,8.7 5.9,14.2 0,6.8 -1.5,11.3 -4.6,13.6 -3.1,2.2 -3.9,4.3 -2.4,6.1 1,1.6 2.6,1.7 4.7,0.2 2.1,-1.5 5.3,-2.3 9.6,-2.3 5.6,0 10.3,2 14.2,5.9 3.9,3.9 5.9,8.7 5.9,14.2 0,5.6 -2,10.3 -5.9,14.2 -3.9,3.9 -8.7,5.9 -14.2,5.9 -4.4,0 -7.6,-0.7 -9.7,-2.2 -2.1,-1.5 -3.6,-1.4 -4.6,0.2 -1.5,1.9 -0.7,3.9 2.4,6.1 z"
   id="path1373" />
			<path
   class="st7"
   d="m -54.7,474.7 c 1.2,0 2.1,-0.4 2.9,-1.2 0.8,-0.8 1.2,-1.8 1.2,-3 0,-1.2 -0.4,-2.2 -1.2,-3 -0.8,-0.8 -1.7,-1.2 -2.9,-1.2 -1.2,0 -2.3,0.4 -3.1,1.2 -0.8,0.8 -1.2,1.8 -1.2,3 0,1.2 0.4,2.2 1.2,3 0.8,0.8 1.9,1.2 3.1,1.2 z"
   id="path1375" />
			<path
   class="st8"
   d="m -78.7,478.3 12.3,3.5 c 0.1,0.6 0.3,1.1 0.8,1.4 0.4,0.4 1,0.7 1.6,0.7 0.7,0 1.3,-0.2 1.8,-0.7 0.5,-0.5 0.7,-1 0.7,-1.8 0,-0.7 -0.2,-1.2 -0.7,-1.7 -0.4,-0.5 -1,-0.7 -1.8,-0.7 -0.7,0 -1.2,0.2 -1.6,0.7 l -0.2,0.2 -12,-4.7 c 0.1,-0.4 0.1,-0.8 0.2,-1.2 l 16.7,-1.8 c 0.7,-0.1 1.2,-0.5 1.5,-1.3 0.5,-1.4 0.1,-2.2 -1.3,-2.3 l -16.7,-2.5 c 0,-0.2 0,-0.4 -0.1,-0.7 l 12.3,-3.8 c 0,0.1 0.1,0.1 0.2,0.2 0.4,0.4 1,0.7 1.6,0.7 0.7,0 1.3,-0.2 1.8,-0.7 0.5,-0.5 0.7,-1 0.7,-1.8 0,-0.7 -0.2,-1.2 -0.7,-1.7 -0.4,-0.5 -1,-0.7 -1.8,-0.7 -0.7,0 -1.2,0.2 -1.6,0.7 -0.4,0.5 -0.7,0.9 -0.8,1.4 l -12.3,2.6 c -1.1,-4.1 -3.3,-7.8 -6.6,-11.2 -0.7,-0.7 -1.3,-1.2 -2,-1.8 l 7.7,-11.2 h 0.3 c 0.7,0 1.3,-0.2 1.8,-0.7 0.5,-0.5 0.7,-1 0.7,-1.8 0,-0.7 -0.2,-1.2 -0.7,-1.7 -0.4,-0.5 -1,-0.7 -1.8,-0.7 -0.7,0 -1.2,0.2 -1.7,0.7 -0.5,0.5 -0.7,1 -0.7,1.7 0,0.5 0.1,1 0.3,1.3 l -8.5,10.4 c -0.6,-0.4 -1.2,-0.7 -1.8,-1 l 3.5,-16.3 c 0.2,-1 -0.2,-1.6 -1.3,-2 -1,-0.4 -1.8,-0.1 -2.2,0.8 l -7.4,14.9 -1.8,-0.2 0.2,-11.5 c 0.3,-0.1 0.5,-0.3 0.8,-0.5 0.4,-0.4 0.7,-1 0.7,-1.8 0,-0.7 -0.2,-1.2 -0.7,-1.7 -0.4,-0.5 -1,-0.7 -1.8,-0.7 -0.7,0 -1.2,0.2 -1.7,0.7 -0.5,0.5 -0.7,1 -0.7,1.7 0,0.7 0.3,1.3 0.8,1.8 0.2,0.2 0.5,0.4 0.8,0.4 l -1.2,11.5 c -4.8,0 -9.1,1.2 -13,3.5 l -8.7,-11.2 c 0.2,-0.4 0.3,-0.8 0.3,-1.3 0,-0.7 -0.2,-1.2 -0.7,-1.7 -0.5,-0.5 -1,-0.7 -1.8,-0.7 -0.7,0 -1.2,0.2 -1.7,0.7 -0.5,0.5 -0.7,1 -0.7,1.7 0,0.7 0.2,1.3 0.7,1.8 0.5,0.4 1,0.7 1.7,0.7 h 0.5 l 7.6,12 c -0.7,0.6 -1.5,1.2 -2.2,2 l -14.9,-8.6 c -1.2,-0.7 -2,-0.3 -2.5,1.1 -0.2,0.7 0,1.5 0.8,2.2 l 11.9,11.6 c -0.4,0.8 -0.8,1.6 -1.1,2.4 l -12.2,-4.1 c 0,-0.6 -0.2,-1.1 -0.7,-1.6 -0.4,-0.4 -1,-0.7 -1.8,-0.7 -0.7,0 -1.2,0.2 -1.7,0.7 -0.5,0.5 -0.7,1 -0.7,1.7 0,0.7 0.2,1.3 0.7,1.8 0.5,0.4 1,0.7 1.7,0.7 0.7,0 1.3,-0.2 1.8,-0.7 l 0.2,-0.2 11.6,5.4 c -0.5,2.1 -0.8,4.2 -0.8,6.5 0,1.9 0.2,3.7 0.5,5.4 l -12.3,4.4 c -0.4,-0.4 -1,-0.7 -1.8,-0.7 -0.7,0 -1.2,0.2 -1.7,0.7 -0.5,0.5 -0.7,1 -0.7,1.7 0,0.7 0.2,1.3 0.7,1.8 0.5,0.4 1,0.7 1.7,0.7 0.7,0 1.3,-0.2 1.8,-0.7 0.5,-0.5 0.7,-1 0.7,-1.8 v -0.1 l 12.4,-3.3 c 0.3,1 0.7,2.1 1.2,3.1 -8.9,8.1 -13.3,12.1 -13.3,12.2 -0.4,1.2 -0.1,2 1.1,2.4 0.6,0.1 1.1,0.1 1.6,-0.2 l 15.2,-7.9 c 0.1,0.1 0.3,0.3 0.4,0.3 0.4,0.4 0.9,0.8 1.3,1.2 l -8.3,11.2 c -0.4,-0.1 -0.7,-0.2 -1.1,-0.2 -0.7,0 -1.2,0.2 -1.7,0.7 -0.5,0.5 -0.7,1 -0.7,1.7 0,0.7 0.2,1.3 0.7,1.8 0.5,0.4 1,0.7 1.7,0.7 0.7,0 1.3,-0.2 1.8,-0.7 0.5,-0.5 0.7,-1 0.7,-1.8 0,-0.4 -0.1,-0.7 -0.2,-1 l 9.6,-10.5 c 3.7,2.6 7.8,4.1 12.4,4.4 l 0.5,12.1 c -0.3,0.1 -0.5,0.3 -0.8,0.5 -0.5,0.5 -0.8,1.1 -0.8,1.8 0,0.7 0.2,1.3 0.7,1.8 0.5,0.4 1,0.7 1.7,0.7 0.7,0 1.3,-0.2 1.8,-0.7 0.5,-0.5 0.7,-1 0.7,-1.8 0,-0.7 -0.2,-1.2 -0.7,-1.8 -0.2,-0.2 -0.5,-0.4 -0.9,-0.5 l 0.7,-12 c 0.7,-0.1 1.5,-0.1 2.3,-0.2 l 7,15.9 c 0.1,0.2 0.4,0.4 1,0.7 1.2,0.4 2,0.1 2.4,-1.1 0,-0.1 -1,-5.9 -2.9,-17.6 l 0.9,-0.4 8.2,11.3 c -0.3,0.4 -0.4,0.9 -0.4,1.4 0,0.7 0.2,1.3 0.7,1.8 0.5,0.4 1,0.7 1.7,0.7 0.7,0 1.3,-0.2 1.8,-0.7 0.5,-0.5 0.7,-1 0.7,-1.8 0,-0.7 -0.2,-1.2 -0.7,-1.7 -0.4,-0.5 -1,-0.7 -1.8,-0.7 -0.2,0 -0.4,0 -0.5,0.1 -1.5,-2.6 -3.9,-6.6 -7,-12.1 1.2,-0.9 2.5,-1.9 3.7,-3.2 3.1,-2.5 5.1,-5.5 6.4,-8.8 z m -9.9,5.3 c -3.9,3.9 -8.7,5.9 -14.2,5.9 -5.6,0 -10.3,-2 -14.2,-5.9 -3.9,-3.9 -5.9,-8.7 -5.9,-14.2 0,-5.6 2,-10.3 5.9,-14.2 3.9,-3.9 8.7,-5.9 14.2,-5.9 5.6,0 10.3,2 14.2,5.9 3.9,3.9 5.9,8.7 5.9,14.2 0,5.5 -2,10.2 -5.9,14.2 z"
   id="path1377" />
			<path
   class="st7"
   d="m -88.7,511.3 c -1.2,0 -2.3,0.4 -3.1,1.2 -0.8,0.8 -1.2,1.8 -1.2,3 0,1.2 0.4,2.2 1.2,3 0.8,0.8 1.8,1.2 3.1,1.2 1.2,0 2.1,-0.4 2.9,-1.2 0.8,-0.8 1.2,-1.8 1.2,-3 0,-1.2 -0.4,-2.2 -1.2,-3 -0.8,-0.8 -1.8,-1.2 -2.9,-1.2 z"
   id="path1379" />
			<path
   class="st8"
   d="m -35.7,390.4 c -2.5,0 -4.2,-0.1 -5.3,-0.3 -1.5,-0.4 -2.3,-1.4 -2.3,-3.1 v -35.2 c -3.1,1.6 -8,2.6 -14.5,3 v 3.2 h 5.9 c 1.8,0 2.7,0.7 2.7,2.2 V 387 c 0,1.3 -0.3,2.2 -0.9,2.5 -0.9,0.6 -3.2,0.9 -7,0.9 v 3.3 h 21.3 v -3.3 z"
   id="path1381" />
		</g><g
     id="g1387">
			<path
   class="st7"
   d="m -175.9,379.6 c 0.9,0.1 1.4,0.2 2.1,0.2 2.3,0 4,-0.8 6.9,-3.1 9.5,-8 10.1,-8.4 10.4,-10.1 0.6,-3.4 0.9,-5.9 0.9,-7.7 0,-2.6 -0.5,-3.7 -2.6,-5.8 l 0.1,-0.3 c 0.5,-0.5 0.8,-0.7 1.2,-0.7 2.7,0 8,4.1 8,6.1 0,0.6 -0.4,2 -1.2,4.1 -0.2,0.5 -0.4,1.2 -0.6,2.3 2.5,1.4 3.4,2.3 3.4,3.3 0,0.8 -0.2,1.2 -2.3,3 -2.4,2.3 -3.2,3.7 -3.7,7 1.1,2.1 1.4,3 1.4,3.9 0,0.2 0,0.3 -0.1,0.5 -0.1,0.3 -0.2,0.5 -0.2,0.6 v 0.2 l 0.9,-0.5 c 0.5,-0.2 1.3,-1.2 2.4,-3 0.9,-1.6 1.8,-3 2.7,-4.5 l 1.3,-2.7 c 0.1,-0.2 0.3,-0.5 0.7,-1.1 h 0.2 v 0.5 c 0,3 -3.4,11.2 -5.9,14.4 -2.8,3.4 -4.7,5.8 -4.8,6.1 -0.4,0.7 -0.6,1.7 -0.6,2.9 0,2.2 0.8,8.9 1.5,11.9 0.4,2 0.6,3.7 0.6,4.8 0,0.7 -0.5,1.2 -0.9,1.2 -0.2,0 -0.5,-0.2 -0.8,-0.4 -2.5,-2.3 -3.9,-6.2 -3.9,-10.4 0,-0.3 0.1,-2.8 0.4,-7.5 -1.4,1.2 -2.7,2.2 -3.1,2.6 -2.9,2.4 -3.5,2.8 -4.4,2.8 -1,0 -1.4,-1.2 -1.4,-3.8 0,-3 0,-3.1 3.4,-5.1 2.3,-1.4 4.9,-4.5 5.7,-6.9 0.2,-0.7 0.8,-4.6 0.8,-5.5 0,-0.1 0,-0.2 -0.2,-0.2 -0.4,0 -2,1.2 -4.3,3.2 -5.3,4.6 -5.4,4.7 -6.8,4.7 -1.1,0 -2.8,-1 -5.2,-2.9 -1.6,-1.4 -1.8,-1.7 -2,-3.8 z m 24.8,12.9 c 0.2,0.1 0.4,0.1 0.5,0.1 0.2,0 0.7,-0.2 1.2,-0.4 0.4,-0.2 1.7,-0.7 3.8,-1.4 0.3,-0.1 1.5,-0.5 2.7,-1 1,-3.4 1.8,-6.4 2.1,-7.5 0.8,-3.3 1.6,-5.5 2.3,-6.3 l 2.1,-2.6 2.4,-3.5 c 0.3,-0.4 1,-1.1 2,-2.1 -3.6,1 -4.7,1.5 -6.3,2.5 -0.9,0.6 -1.7,1 -2.2,1 -0.2,0 -0.5,-0.2 -0.7,-0.4 -0.6,-0.5 -1.9,-2.7 -1.8,-3.1 0,-0.4 0.5,-1.1 1.2,-1.9 1.6,-1.8 2.7,-3.5 2.7,-4.6 0,-0.3 -0.3,-0.8 -0.6,-0.9 -2.3,-0.9 -2.3,-0.9 -2.8,-1.4 l -0.2,-0.3 c 0.1,-1.2 0.8,-2.1 1.6,-2 l 1.8,0.3 c 3.7,0.5 3.7,0.5 4.9,1.3 1.1,0.8 1.9,1.9 1.9,2.7 0,0.5 -0.5,1.5 -1,2.1 -0.5,0.4 -0.5,0.5 -0.5,0.7 l 0.9,-0.2 c 6.6,-2.9 6.6,-2.9 8,-2.9 2.3,0 5.9,2.3 5.9,3.7 0,0.9 -0.9,1.3 -4.8,2.2 -5,1.2 -12.1,6.6 -12.1,9.4 0,0.2 0.1,0.4 0.3,0.4 0.8,0 2.7,-1.1 5.6,-3.2 1.2,-0.9 2.4,-1.4 3.3,-1.4 0.9,0 3,1.1 4.7,2.3 1.3,1 2.2,2.2 2.2,3 0,0.2 -0.2,1.3 -0.5,2.9 0,0.7 -0.1,2.3 -0.2,4.8 4.3,0.3 5.8,0.9 8.2,2.9 1.9,1.6 2.5,2.3 2.5,3.1 0,0.6 -0.5,1 -1.3,1 -0.5,0 -1.3,-0.1 -2.2,-0.3 -3.2,-0.9 -4.1,-0.9 -7.7,-1.1 -0.2,3.8 -0.3,4.4 -0.6,7.9 2.3,0.2 3.3,0.8 5.3,2.7 0.9,0.9 1.4,1.7 1.4,2.3 0,0.6 -0.5,0.9 -1.5,0.9 -0.9,0 -1.3,-0.1 -3.5,-0.8 -1.2,-0.4 -1.2,-0.5 -2.6,-0.8 -2.2,5.4 -3.5,7.7 -5.9,10.1 -1,0.9 -1.9,1.5 -2.7,1.5 -0.8,0 -0.9,-0.1 -1.9,-2.1 l -1.3,-2.1 c -0.8,-2.3 -1,-3 -1.8,-5.1 l 0.2,-0.2 c 2.1,1.2 3.2,1.6 4.2,1.6 2,0 3,-1.3 4.5,-5.2 -1.1,-0.2 -2,-0.2 -2.6,-0.2 -2,0 -4.2,0.5 -8.7,2.3 -2.3,0.9 -2.3,0.9 -4.7,2.3 -0.5,0.3 -1.1,0.5 -1.8,0.5 -0.5,0 -1.2,-0.2 -1.6,-0.5 -0.9,-1 -1.9,-3.4 -1.9,-4.6 0,-0.6 0,-0.6 2.1,-3.1 0.3,-0.3 0.5,-0.6 0.5,-0.8 0,-0.2 -0.2,-0.3 -0.5,-0.3 -0.2,0 -0.5,0.1 -0.9,0.2 -0.9,0.2 -1.5,0.4 -1.5,0.4 -5,-0.6 -5,-0.6 -5,-0.8 0,-0.1 0,-0.1 0.3,-0.5 l 1,-1.6 c 0.1,-0.2 0.6,-0.9 1.2,-1.5 h 0.4 z m 13.9,4.6 c 0.5,-0.8 2.2,-4.1 2.2,-4.6 0,-0.2 -0.2,-0.3 -0.5,-0.3 -0.7,0 -1.6,0.3 -4.8,1.8 -1.6,3 -1.9,3.4 -3.5,6.3 4.1,-1.1 5.5,-1.9 6.6,-3.2 z m 0.8,-19.2 c -0.3,4.8 -0.5,5.6 -1.9,10.6 1.9,-0.6 2.2,-0.7 4.4,-1.2 0.5,-2 1,-5.3 1,-6.9 0,-0.5 -0.2,-1 -0.6,-1.2 z m 4.8,19.6 c 1.3,-0.2 2.3,-0.2 3,-0.2 0.4,0 1.1,0 1.9,0.1 0.5,-3.5 0.6,-4.1 0.9,-7 -3.6,0.2 -4.4,0.3 -4.8,0.9 -0.2,0.3 -1.9,5.4 -1.9,5.9 0,0.2 0.2,0.4 0.5,0.4 h 0.4 z m 6.1,-14.6 c 0,-5.5 -0.2,-6.7 -0.9,-6.7 -0.1,0 -0.1,0 -1.6,1.2 -1.6,1.5 -1.6,1.5 -1.6,1.7 0,0.2 0.2,0.8 0.5,1.5 0.2,0.7 0.4,1.3 0.4,1.7 0,0.5 -0.1,1.1 -0.3,2 -0.2,0.4 -0.2,1.1 -0.5,2 2.1,-0.2 2.4,-0.2 4.2,-0.9 z"
   id="path1385" />
		</g></g>

</svg>
