<?xml version="1.0" encoding="UTF-8" standalone="no"?>
<!-- Generator: Adobe Illustrator 19.0.0, SVG Export Plug-In . SVG Version: 6.00 Build 0)  -->

<svg
   version="1.1"
   id="svg2985"
   x="0px"
   y="0px"
   viewBox="-192 293.9 210 255"
   style="enable-background:new -192 293.9 210 255;"
   xml:space="preserve"
   sodipodi:docname="spring.svg"
   inkscape:version="1.1.2 (0a00cf5339, 2022-02-04)"
   xmlns:inkscape="http://www.inkscape.org/namespaces/inkscape"
   xmlns:sodipodi="http://sodipodi.sourceforge.net/DTD/sodipodi-0.dtd"
   xmlns="http://www.w3.org/2000/svg"
   xmlns:svg="http://www.w3.org/2000/svg"><defs
   id="defs1527">
	
	

		
			<filter
   height="1.0200796"
   width="1.0183963"
   id="filter3970-5"
   x="-0.0091981534"
   y="-0.010039815"
   color-interpolation-filters="sRGB">
			<feGaussianBlur
   stdDeviation="0.12800763"
   id="feGaussianBlur3972-8" />
		</filter>
		
		
		
		
		
	</defs><sodipodi:namedview
   id="namedview1525"
   pagecolor="#ffffff"
   bordercolor="#666666"
   borderopacity="1.0"
   inkscape:pageshadow="2"
   inkscape:pageopacity="0.0"
   inkscape:pagecheckerboard="0"
   showgrid="false"
   inkscape:zoom="3.2156863"
   inkscape:cx="90.804878"
   inkscape:cy="202.28963"
   inkscape:window-width="1866"
   inkscape:window-height="1009"
   inkscape:window-x="54"
   inkscape:window-y="34"
   inkscape:window-maximized="1"
   inkscape:current-layer="svg2985" />
<style
   type="text/css"
   id="style1455">
	.st0{enable-background:new    ;}
	.st1{fill:#005F00;}
	.st2{fill:#CDDACD;}
	.st3{fill:#FFFFFF;}
	.st4{fill:url(#rect3008_1_);}
	.st5{filter:url(#filter3970-5);}
	.st6{fill:url(#SVGID_1_);}
	.st7{fill:#2A3B92;}
	.st8{fill:#038249;}
	.st9{fill:#D37F11;}
	.st10{fill:#BF3718;}
</style>
<g
   id="g4146"
   transform="translate(39.768324,209.71794)">
		</g><g
   id="g2836"
   transform="matrix(1.367721,0,0,1.367721,54.559123,-181.35464)"><g
     id="g1512">
			<path
   class="st7"
   d="m -43.3,462.4 c 2.1,-1.4 3.7,-2.9 4.8,-4.4 3.6,-5.5 4.9,-10.8 4.1,-15.8 -0.7,-3.7 -3,-6.8 -6.8,-9.6 -3.3,-2.2 -7.6,-3.1 -12.9,-2.7 -1.2,0.1 -2.1,0.2 -2.5,0.3 -0.1,-0.4 -0.2,-1 -0.4,-1.8 -0.8,-2.3 -2.2,-4.1 -4.3,-5.6 -1.9,-1.3 -4.3,-1.5 -7.3,-0.4 -1.2,0.4 -2.6,1.8 -4.4,4.1 -1.1,1.2 -1.9,2.5 -2.5,3.8 -0.7,1.4 -1.4,3.2 -2.3,5.5 -1.6,4.8 -2.5,8.7 -2.6,11.8 -0.3,-0.1 -1,-0.2 -2.2,-0.2 -1.5,0 -2.8,0.3 -3.7,0.9 -1.5,-1.2 -2.3,-2.4 -2.6,-3.6 -0.8,-3.1 -0.5,-5.9 0.9,-8.3 1.1,-1.9 2,-2.9 2.9,-2.9 0.7,0 1.4,0.3 2.2,1 1.2,1.3 1.2,2.6 0.2,3.8 -0.6,0.7 -1.1,1 -1.4,0.8 -0.7,-0.3 -0.7,-0.8 -0.1,-1.4 1,-1.1 0.9,-1.8 -0.2,-2.2 -1,-0.3 -1.9,0.1 -2.7,1.3 -1.1,1.7 -0.6,3.2 1.4,4.5 1.2,0.7 2.5,0.8 4,0.1 1.5,-0.7 2.3,-1.6 2.4,-2.7 0.3,-5 -1.4,-7.7 -5.1,-8.2 -2.1,-0.2 -4.1,1 -5.9,3.5 -1.7,2.6 -2.3,6 -1.9,10 0.3,2.5 1.5,4.5 3.7,5.9 -2.6,-0.4 -4.5,-1 -5.7,-1.8 -2.9,-1.7 -4.7,-3.9 -5.5,-6.6 -0.6,-2.1 -0.6,-3.4 -0.1,-4.1 0.4,-0.6 1.2,-0.8 2.2,-0.8 1.3,0.1 2.2,0.9 2.6,2.4 0.3,0.8 0.1,1.3 -0.5,1.5 -0.4,0.1 -0.6,-0.2 -0.5,-1.1 0,-1.4 -0.6,-1.8 -1.8,-1.1 -1,0.6 -1.2,1.5 -0.9,2.9 0.4,1.4 1.5,2 3.1,1.9 1.5,-0.2 2.4,-0.9 2.7,-2.1 0.7,-2.5 0.2,-4.4 -1.4,-5.8 -2.4,-2 -4.8,-2.1 -7.1,-0.2 -1.8,1.3 -2.3,3.6 -1.5,6.7 0.7,3 2.7,5.8 5.8,8.2 1.8,1.4 4.2,2.1 7.3,2.1 -0.4,0.6 -0.7,1.8 -0.7,3.5 0,2.2 0.8,4.1 2.4,5.7 1.6,1.6 3.5,2.4 5.8,2.4 0.9,0 1.5,-0.1 2,-0.2 1.2,1.5 2.6,3 4.2,4.5 3.1,2.9 6.3,5.5 9.4,7.8 2.5,1.8 4.5,2.4 6,1.9 0.6,-0.2 1.2,-0.1 1.8,0.4 0.5,0.5 1.4,1 2.6,1.3 4.7,1.2 8,0.3 9.9,-2.7 0.4,-0.7 0.7,-1.5 0.9,-2.5 0.7,-4.2 -0.4,-7.4 -3.2,-9.6 1.1,0 3,-0.6 5.4,-2.1 z m -32.5,-21.6 c 1.2,-4.5 2.7,-8 4.3,-10.3 1.3,-2.1 2.5,-3.4 3.5,-4.2 1.7,-1.2 3.2,-1.3 4.5,-0.4 1,0.6 1.8,1.4 2.5,2.5 0.7,1 1.1,1.9 1.1,2.9 -0.3,0.2 -1,0.6 -2.2,1.2 -3.2,1.5 -6.3,4 -9.3,7.3 -1,1.1 -2.3,3 -4,5.6 -1,1.6 -1.6,2.9 -2.1,3.8 -0.1,-1 0.4,-3.8 1.7,-8.4 z m -6.8,19.7 c -1.4,0 -2.6,-0.5 -3.6,-1.5 -1,-1 -1.5,-2.2 -1.5,-3.6 0,-1.4 0.5,-2.6 1.5,-3.6 1,-1 2.2,-1.5 3.6,-1.5 1.5,0 2.7,0.5 3.7,1.5 1,1 1.5,2.2 1.5,3.6 0,1.4 -0.5,2.6 -1.5,3.6 -1,1 -2.3,1.5 -3.7,1.5 z m 20.3,13.7 c -0.2,0.3 -0.8,0.1 -1.9,-0.7 -1.2,-0.8 -2.7,-1.9 -4.6,-3.4 -5.6,-4.7 -8.6,-7.4 -9,-8 0.7,-0.4 1.4,-1.1 2,-2.1 l 2.1,1.5 c 3.3,2.3 6.5,5.4 9.7,9.2 1.4,1.9 2,3 1.7,3.5 z m 8.5,-9.5 c 0.7,0.4 1.1,0.8 1.4,1 1.5,1.1 2.5,2.4 2.7,3.8 0.4,2 0.4,3.6 -0.2,4.9 -0.5,1.1 -1.5,1.7 -2.9,1.9 -2.3,0.3 -4.4,-0.4 -6.2,-2.2 0,-0.5 -0.4,-1.4 -1.1,-2.7 -0.7,-1.3 -1.6,-2.6 -2.7,-4 -3.1,-4.1 -6.5,-7.3 -10.1,-9.4 l -1.6,-0.9 c 0.1,-0.4 0.1,-0.9 0.1,-1.6 0,-1.3 -0.2,-2.4 -0.5,-3.2 0.1,-0.3 0.2,-0.8 0.4,-1.4 0.5,-1.2 1.2,-2.5 2.1,-3.7 l 1.6,-2.5 c 3.1,-4.6 7.4,-8.1 12.7,-10.5 2.1,-0.9 4.6,-1.2 7.4,-0.9 3.1,0.4 5.4,1.1 7,2.3 3.4,2.5 5.3,5.1 5.8,7.9 0.4,2.3 0.1,4.8 -1.1,7.6 -0.8,2 -1.6,3.5 -2.3,4.5 -2.4,3.7 -6.3,5.7 -11.5,6.2 -1.5,0.1 -2.3,0.4 -2.4,1 -0.2,0.3 0.3,1 1.4,1.9 z"
   id="path1482" />
			<polygon
   class="st8"
   points="-125.1,441.3 -125.1,531.3 -121.7,527.1 -121.7,441.3 "
   id="polygon1484" />
			<path
   class="st9"
   d="m -115.5,430.5 c 0,-5.4 -1.6,-10.9 -4.8,-16.4 -3.2,-5.5 -7.1,-9.6 -11.8,-12.4 -2.3,-1.3 -4,-2 -5.3,-2 -0.1,0 -0.3,0 -0.7,0.1 0.8,2.1 1.2,4 1.2,5.9 0,2.2 -0.6,5.4 -1.9,9.6 -1.3,4.2 -1.9,7.3 -1.9,9.4 0,2.7 1.2,5.6 3.7,8.7 2.5,3.1 5.1,5 7.7,5.7 1.2,0.4 2.7,0.5 4.6,0.5 6.2,0.2 9.2,-2.9 9.2,-9.1 z"
   id="path1486" />
			<path
   class="st8"
   d="m -58,466 c -0.3,0.2 -0.5,0.6 -0.6,1.2 -0.1,1.2 0.1,2.5 0.7,3.6 0.5,1.1 1.2,1.8 2.2,2.2 0.4,0.1 0.7,0.2 1,0.2 0.6,0 1.1,-0.1 1.6,-0.4 0.3,-0.3 0.5,-0.6 0.8,-1 0.2,-0.4 0.3,-1 0.3,-1.6 0,-0.7 -0.4,-1.5 -1.3,-2.4 -1,-1 -2.1,-1.6 -3.3,-1.9 -0.6,-0.1 -1,-0.1 -1.4,0.1 z"
   id="path1488" />
			<path
   class="st8"
   d="m -42.7,449.3 c 0.3,-3.9 -0.3,-7 -1.8,-9.3 -1.5,-2.5 -4,-3.8 -7.4,-3.8 -3.4,0 -6.7,1.1 -9.9,3.4 -3.2,2.3 -5.5,5.2 -6.7,8.6 -1.2,3.4 -1.1,6.3 0.4,8.7 1.5,2.5 4,3.8 7.3,3.8 3.3,0 6.6,-0.7 9.9,-2.1 5.3,-2.3 8,-5.4 8.2,-9.3 z m -16.7,7.2 c -2.3,0 -3.9,-0.8 -4.7,-2.1 -1,-1.7 -1.1,-3.7 -0.3,-5.9 0.8,-2.3 2.4,-4.2 4.7,-5.8 2.2,-1.6 4.4,-2.4 6.6,-2.4 2.2,0 3.8,0.8 4.8,2.4 1,1.6 1.4,3.7 1.2,6.2 -0.2,2.5 -2.1,4.6 -5.5,6.2 -2.2,1 -4.5,1.5 -6.8,1.4 z"
   id="path1490" />
			<path
   class="st9"
   d="m -108.4,402.3 c -1,0 -3,0.8 -6.3,2.5 -3,1.6 -5,2.8 -5.9,3.6 5.7,5.8 8.6,13 8.6,21.8 0,1.8 -0.4,3.9 -1.2,6.4 2.3,-1 4.2,-3 5.8,-6 1.6,-3.1 2.4,-5.9 2.4,-8.5 0,-1.5 -0.5,-3.5 -1.5,-6 -1,-2.5 -1.5,-4.5 -1.5,-6 0,-2.8 0.5,-5.4 1.6,-7.8 z"
   id="path1492" />
			<path
   class="st10"
   d="m -107,504.4 c 1.8,0.9 4.1,1.3 6.9,1.3 2.5,0 4.6,-0.3 6.4,-0.9 2.7,-0.8 5.9,-4.4 9.6,-10.9 3.7,-6.4 7.2,-10.3 10.7,-11.5 -3.7,-2.2 -8.4,-3.3 -14.3,-3.3 -2.9,0 -5.8,0.3 -8.8,1 -3.6,0.9 -7.3,2.7 -11.2,5.5 -4.5,3.3 -6.8,6.4 -6.8,9.4 0,1.5 0.9,3.3 2.6,5.3 1.6,2 3.3,3.3 4.9,4.1 z"
   id="path1494" />
			<path
   class="st8"
   d="m -111.4,503.3 -2.3,-2.3 c -4,1.2 -6.2,9.4 -6.6,24.6 l 3.4,-4.3 c 0.6,-10.7 2.4,-16.7 5.5,-18 z"
   id="path1496" />
			<path
   class="st9"
   d="m -126.4,401.5 c 1.4,1.4 2.7,2.8 3.8,4.2 1.5,-1.1 2.7,-2 3.7,-2.6 L -122,398 c -1,0.8 -2.5,2 -4.4,3.5 z"
   id="path1498" />
			<path
   class="st10"
   d="m -83.1,471 c -2.3,0.6 -4.3,1 -5.8,1.2 0.1,1 0.4,2.4 0.7,4.4 H -83 V 471 Z"
   id="path1500" />
			<path
   class="st8"
   d="m -126.9,531.6 c 0,-34 -3.3,-55.8 -9.8,-65.4 l -2.9,3.3 c 6.2,9.2 9.3,28.5 9.3,58.1 z"
   id="path1502" />
			<path
   class="st7"
   d="m -135.1,457.8 c 0.7,-2 1.1,-3.8 1.1,-5.3 0,-6 -2,-10.5 -6,-13.6 -2.3,-1.6 -4.5,-3.2 -6.7,-4.8 -1.5,-1.4 -2.8,-4 -4,-7.7 -3,3.1 -5.5,7.8 -7.6,14.1 4.3,0.1 8.9,2 13.8,5.7 4.9,3.6 8,7.5 9.4,11.6 z"
   id="path1504" />
			<path
   class="st10"
   d="m -116.6,488.2 c 0,0.7 0.2,1.6 0.7,2.9 1.1,-3.8 4.6,-7.3 10.4,-10.3 5.4,-3 10.2,-4.4 14.3,-4.2 v -1.9 c 0,-2.8 -1.8,-7 -5.5,-12.7 -2,4.7 -4.8,7.8 -8.5,9.3 -7.6,3.1 -11.4,8.7 -11.4,16.9 z"
   id="path1506" />
			<path
   class="st7"
   d="m -160.3,435.8 c -0.4,-0.1 -1.3,-0.4 -2.5,-0.9 -1.2,-0.5 -2,-0.8 -2.3,-0.8 h -1 c -0.2,1.2 -0.5,3 -0.9,5.4 0.7,0 2.6,0.2 5.5,0.5 0.3,-1 0.7,-2.4 1.2,-4.2 z"
   id="path1508" />
			<path
   class="st7"
   d="m -168.9,453.8 c 3.2,7.4 5.1,11.4 5.5,12 2.7,3.7 7,5.5 13,5.5 3.1,0 6,-0.9 8.8,-2.7 3.2,-1.9 4.8,-4.3 4.8,-7.3 0,-1 -0.7,-2.7 -2.1,-4.9 -2.5,-4 -6.6,-7.4 -12.4,-10 -5.4,-2.6 -10.6,-4 -15.6,-4 -2.5,0 -5.6,0.7 -9.2,2.2 2.5,0.5 4.9,3.6 7.2,9.2 z"
   id="path1510" />
		</g><path
     class="st7"
     d="m -145.7,390.4 c -2.5,0 -4.2,-0.1 -5.3,-0.3 -1.5,-0.4 -2.3,-1.4 -2.3,-3.1 v -35.2 c -3.1,1.6 -8,2.6 -14.5,3 v 3.2 h 5.9 c 1.8,0 2.7,0.7 2.7,2.2 V 387 c 0,1.3 -0.3,2.2 -0.9,2.5 -0.9,0.6 -3.2,0.9 -7,0.9 v 3.3 h 21.3 v -3.3 z"
     id="path1514" /><g
     id="g1518">
			<path
   class="st10"
   d="m -101.9,410.8 c 7.6,-3.9 14,-10.9 20.3,-22.8 l 0.4,-0.8 c -0.6,0.3 -1.9,1 -2.1,1.2 -1.7,1.1 -1.7,1.1 -2.4,1.1 -2.2,0 -4.7,-2 -4.7,-3.6 0,-0.3 0.1,-0.7 0.2,-1.2 l 0.2,-0.3 c 0.5,0.1 0.9,0.1 1.1,0.1 1.6,0 4.3,-0.9 6.6,-2.1 4.1,-2.4 4.1,-2.4 6.4,-3.4 0.5,-0.9 0.5,-0.9 0.8,-1.8 v -0.3 c -0.7,0.2 -1.6,0.5 -1.8,0.7 -1.7,0.6 -2.3,0.8 -2.8,0.8 -2.2,0 -4.1,-1.4 -4.1,-3.2 0,-1.6 0.2,-1.8 2.1,-2 3.6,-1.2 5.1,-1.8 7.1,-3.1 l 0.2,-0.7 c -0.5,0.2 -0.9,0.2 -1.2,0.2 -1.6,0 -3.7,-0.9 -5.1,-2 -1.6,-1.4 -2.1,-2.1 -2.6,-3.1 l 0.1,-0.5 c 0.7,0.1 1.2,0.1 1.6,0.1 2.8,0 5.5,-0.9 10.1,-3.4 0.8,-2.4 1.7,-5.9 1.7,-7 0,-0.3 -0.2,-0.6 -0.4,-0.6 -0.5,0 -1.5,0.4 -2.1,0.9 h -0.5 c -0.2,-0.5 -0.2,-0.9 -0.2,-1.2 0,-1.6 1.9,-3 4.2,-3 2.7,0 4.4,1.2 4.4,3.1 0,0.7 0,-0.3 -1,2 -0.4,1.7 -0.5,2 -0.9,3.5 0.2,0.1 0.4,0.2 0.5,0.2 0.2,0 0.5,-0.1 0.8,-0.3 1.2,-0.6 1.5,-0.8 1.9,-0.8 0.8,0 4,1.2 4.8,1.9 0.9,0.7 1.5,1.5 1.5,2.1 0,1.2 -1,1.8 -5.6,3.6 -3,1.2 -3.7,1.5 -6,2.9 l -0.3,1.9 c 0.9,-0.3 1.5,-0.5 1.7,-0.6 l 2.7,-1.2 c 0.4,-0.2 0.7,-0.3 0.9,-0.3 0.7,0 3.1,0.9 3.6,1.3 0.7,0.6 1,1.2 1,2 0,0.9 -0.6,1.5 -2.7,2.4 -1.2,0.5 -2.7,1.6 -5.5,3.4 l 1.2,-0.2 c 0.5,-0.1 0.9,-0.1 1.1,-0.1 l 2.6,-0.2 1,-0.1 1.3,-0.1 c 0.6,-0.1 6.8,-0.1 6.9,-0.1 1.7,0 3.6,1.6 3.6,3 0,1 -0.9,1.6 -2.3,1.6 l -9.5,-0.1 c -1,0 -1.9,0.1 -5.2,0.2 3.2,1.7 4.8,3 10.5,8.1 4.9,4.8 13.1,9.9 21.1,13.3 2.2,0.9 3.8,2.5 3.8,3.6 0,1 -1.3,1.3 -5.6,1.3 -2,0 -6.3,-0.7 -8.5,-1.4 -1.4,-0.4 -1.4,-0.4 -3.6,-3.1 -1.3,-1.4 -2.6,-2.7 -3.9,-4.1 -0.4,-0.4 -2,-2.3 -3.6,-4.4 -1.3,-1.7 -1.7,-2.1 -2.9,-2.9 0.3,1.3 0.5,2.3 0.5,2.7 l -0.1,2.2 0.1,6.2 c 0,1.3 -0.3,6.8 -0.5,7.8 -0.5,3.7 -2.4,7.1 -3.9,7.1 -1.1,0 -1.1,0 -3.8,-6.5 -0.4,-0.9 -0.5,-0.9 -1.2,-0.9 -2.3,0 -4.3,0.7 -6.2,2.3 -0.2,0.2 -0.5,0.4 -0.7,0.4 -0.4,0 -1.4,-1 -2.4,-2.3 -0.9,-1.2 -1.6,-1.9 -1.7,-2.1 -0.2,-0.2 -0.2,-0.3 -0.2,-0.4 l 0.2,-2.6 c 0,0 -0.1,-0.2 -0.2,-0.4 -0.5,-1.1 -0.7,-2.3 -0.7,-3.5 0,-0.9 0.1,-1.8 0.2,-2.9 0.1,-0.9 0.2,-1.7 0.2,-2.4 0,-0.8 -0.2,-1.2 -0.7,-1.2 h -0.2 c -6.9,10.3 -12.9,15.1 -21.1,16.3 z m 40.1,-22.1 c -0.9,-1 -2.9,-2.9 -4.8,-4 -2.5,-1.5 -3.3,-1.3 -4.1,-1.3 -0.2,0 -1.6,0.1 -2.2,0.2 -0.7,0.9 -2.2,2.6 -2.3,3 -1.9,3.5 -3.3,5 -4.1,6.4 1.2,0.9 3.4,3.8 3.7,5.1 0.2,0.1 0.3,0.1 0.4,0.1 0.8,0 1.8,-0.4 4.2,-1.5 0.5,-0.2 1,-0.4 1.3,-0.4 1.2,0 3,1.6 3,2.7 0,0.3 -0.2,0.9 -0.5,1.2 -0.6,0.5 -0.6,0.5 -4,1.3 -0.3,0.1 -0.9,0.3 -2,0.7 -0.5,0.2 -0.9,0.3 -1.2,0.3 -0.2,0 -0.4,-0.1 -0.8,-0.2 -0.2,0.7 -0.4,2.3 -0.4,3.7 0,0.4 0.4,0.8 0.7,0.8 0.2,0 0.3,-0.1 0.5,-0.2 1.4,-0.6 4.1,-1.3 5.1,-1.3 0.7,0 1.3,0.4 2,1.3 0.5,0.4 0.9,0.6 1.3,0.6 0.9,0 1.4,-1.3 1.2,-3.6 0,0 0,-1.6 0.1,-3.1 0.1,-1.4 0.2,-3.1 0.2,-4.6 0,-3.6 -0.5,-4.6 -2.1,-4.6 -0.9,0 -1.6,0.2 -2.8,1 -2.4,1.5 -3.7,2.1 -4.3,2.1 -0.5,0 -1.2,-0.2 -2.4,-0.6 -0.5,-0.2 -0.6,-0.2 -1,-0.9 l 0.2,-0.3 c 1,-0.4 1,-0.4 2,-1.4 2.5,-2.4 5.7,-4.3 7.5,-4.3 1.2,0 2.4,0 4.6,1.1 z"
   id="path1516" />
		</g></g>

</svg>
