<?xml version="1.0" encoding="UTF-8" standalone="no"?>
<!-- Generator: Adobe Illustrator 19.0.0, SVG Export Plug-In . SVG Version: 6.00 Build 0)  -->

<svg
   version="1.1"
   id="svg2985"
   x="0px"
   y="0px"
   viewBox="-192 293.9 210 255"
   style="enable-background:new -192 293.9 210 255;"
   xml:space="preserve"
   sodipodi:docname="summer.svg"
   inkscape:version="1.1.2 (0a00cf5339, 2022-02-04)"
   xmlns:inkscape="http://www.inkscape.org/namespaces/inkscape"
   xmlns:sodipodi="http://sodipodi.sourceforge.net/DTD/sodipodi-0.dtd"
   xmlns="http://www.w3.org/2000/svg"
   xmlns:svg="http://www.w3.org/2000/svg"><defs
   id="defs1636">
	
	

		
			<filter
   width="1.0183963"
   height="1.0200796"
   y="-0.010039815"
   x="-0.0091981534"
   id="filter3970-5"
   color-interpolation-filters="sRGB">
			<feGaussianBlur
   stdDeviation="0.12800763"
   id="feGaussianBlur3972-8" />
		</filter>
		
		
		
		
		
	</defs><sodipodi:namedview
   id="namedview1634"
   pagecolor="#ffffff"
   bordercolor="#666666"
   borderopacity="1.0"
   inkscape:pageshadow="2"
   inkscape:pageopacity="0.0"
   inkscape:pagecheckerboard="0"
   showgrid="false"
   inkscape:zoom="3.2156863"
   inkscape:cx="102"
   inkscape:cy="102.77744"
   inkscape:window-width="1866"
   inkscape:window-height="1009"
   inkscape:window-x="54"
   inkscape:window-y="34"
   inkscape:window-maximized="1"
   inkscape:current-layer="svg2985" />
<style
   type="text/css"
   id="style1586">
	.st0{enable-background:new    ;}
	.st1{fill:#005F00;}
	.st2{fill:#CDDACD;}
	.st3{fill:#FFFFFF;}
	.st4{fill:url(#rect3008_1_);}
	.st5{filter:url(#filter3970-5);}
	.st6{fill:url(#SVGID_1_);}
	.st7{fill:#038249;}
	.st8{fill:#BF3718;}
	.st9{fill:#2A3B92;}
</style>
<g
   id="g4146"
   transform="translate(39.768324,209.71794)">
		</g><g
   id="g2640"
   transform="matrix(1.3903787,0,0,1.3903787,57.234467,-191.1864)"><g
     id="g1621">
			<path
   class="st7"
   d="m -42.3,500.3 c -4.5,-1.9 -9.2,-2.2 -14,-0.8 -2.6,0.8 -4.8,1.9 -6.6,3.3 l 11.4,10.9 -17.2,-0.9 c -0.2,2.1 0.1,4.1 1,6.3 1.6,4 4.7,7 9.2,8.9 4.5,1.8 9.2,2.1 14,0.7 4.8,-1.4 8.3,-3.9 10.5,-7.7 2.2,-3.8 2.5,-7.7 0.9,-11.8 -1.6,-4.1 -4.7,-7.1 -9.2,-8.9 z"
   id="path1613" />
			<path
   class="st8"
   d="m -69.9,488.2 c 3.7,-0.1 9.9,-2.6 18.7,-7.4 -0.6,-1 -1.8,-2.2 -3.5,-3.4 8.1,-2.4 14.6,-7.7 19.8,-15.8 -7.1,-3.1 -15.5,-4.7 -25.2,-4.7 3.4,-4 5.7,-9.2 7.1,-15.6 h -4.8 c -6.9,0 -12,0.6 -15.5,1.8 0.4,-6.4 -0.8,-14.1 -3.6,-23.3 -6.8,2.9 -12.8,7 -18,12.5 -2,-6.2 -5.3,-11.2 -10.1,-14.9 -4.8,3.7 -8.2,8.7 -10.2,14.9 -5.2,-5.5 -11.2,-9.7 -18,-12.5 -2.8,9.2 -4,16.9 -3.6,23.3 -3.4,-1.2 -8.6,-1.8 -15.5,-1.8 h -4.8 c 1.4,6.4 3.8,11.6 7.1,15.6 -9.7,0 -18.1,1.6 -25.2,4.7 5.1,8.1 11.7,13.4 19.8,15.8 -1.8,1.2 -2.9,2.4 -3.5,3.4 8.8,4.8 15,7.2 18.7,7.4 -2,4.2 -3.4,11.2 -4.4,20.8 19.9,-0.3 33.1,-6.3 39.7,-18.1 6.4,11.8 19.6,17.8 39.6,18.1 -1.1,-9.6 -2.6,-16.5 -4.6,-20.8 z m 29.1,-24.8 c -7.8,7.3 -13.7,11.1 -17.9,11.4 -5.1,-3 -9.5,-5.1 -13.3,-6.3 2.8,-2 5.9,-4.8 9.2,-8.1 9.4,0 16.7,1 22,3 z m -38.5,-37.7 c 1.6,5.6 2.2,11.8 1.9,18.3 -3.1,0.9 -8,3.4 -14.6,7.6 0.1,-5.3 -0.4,-10 -1.4,-13.8 3,-5.3 7.8,-9.3 14.1,-12.1 z m 20.8,19.5 c -5.2,10.7 -11.4,18 -18.7,21.9 -5.1,-0.4 -9.9,-0.4 -14.4,0 -0.2,-2.4 -0.9,-5.5 -2.1,-9.3 11.6,-8.3 23.3,-12.4 35.2,-12.6 z m -32.6,24.7 c 1.9,-0.1 4.5,-0.1 7.8,0.1 8.3,0.4 16.8,3.7 25.5,9.9 -6.5,3.4 -14.7,5.2 -24.5,5.2 -2.9,0 -7.8,-0.3 -14.6,-0.8 3.6,-3.1 5.5,-7.9 5.8,-14.4 z m -23.1,-20.2 c 0,-10 3,-19 9.1,-26.9 6,7.9 9,16.9 9,26.9 v 3.4 c -1.5,-3 -4.5,-6.3 -9,-9.9 -4.5,3.6 -7.6,6.9 -9.1,9.9 z m -16.7,-24 c 6.3,2.8 11,6.8 14.2,12.1 -1,3.9 -1.5,8.5 -1.4,13.8 -6.6,-4.2 -11.5,-6.7 -14.6,-7.6 -0.4,-6.5 0.2,-12.6 1.8,-18.3 z m -20.8,19.5 c 11.9,0.2 23.7,4.4 35.2,12.5 -1.2,3.8 -1.9,6.9 -2.1,9.3 -4.5,-0.4 -9.3,-0.4 -14.4,0 -7.3,-3.9 -13.5,-11.1 -18.7,-21.8 z m -17.7,18.2 c 5.3,-2 12.7,-3 22,-3 3.4,3.4 6.4,6.1 9.2,8.1 -3.8,1.2 -8.2,3.3 -13.3,6.3 -4.2,-0.3 -10.2,-4.2 -17.9,-11.4 z m 17,16.5 c 8.6,-6.2 17.1,-9.4 25.5,-9.9 3.3,-0.2 5.9,-0.3 7.8,-0.1 0.3,6.5 2.2,11.3 5.8,14.4 -6.8,0.5 -11.7,0.8 -14.6,0.8 -9.8,-0.1 -18,-1.8 -24.5,-5.2 z m 29.8,20 c -5,2.1 -10.5,3.4 -16.6,3.7 0.1,-5.4 1.3,-10.4 3.5,-14.9 h 14.4 c 3.4,0 7.6,-0.4 12.6,-1.2 -2.4,5.3 -7,9.4 -13.9,12.4 z m 7.9,-30.5 c 0,-7.5 3.2,-14.5 9.7,-20.9 6.4,6.4 9.6,13.3 9.6,20.9 0,9.2 -3.2,13.8 -9.6,13.8 -6.5,0.1 -9.7,-4.5 -9.7,-13.8 z m 27.1,30.5 c -6.9,-2.9 -11.5,-7.1 -14,-12.4 5.1,0.8 9.3,1.2 12.6,1.2 h 14.4 c 2.2,4.5 3.4,9.5 3.5,14.9 -6,-0.4 -11.5,-1.6 -16.5,-3.7 z"
   id="path1615" />
			<path
   class="st7"
   d="m -165.1,426 c 3.1,2 6.8,2.9 10.9,2.6 4.1,-0.2 7.6,-1.5 10.3,-3.8 2.7,-2.3 3.9,-5.1 3.5,-8.1 -0.1,-1.7 -0.7,-3.2 -1.8,-4.5 l -12.5,4.8 4.4,-10 c -1.9,-0.5 -4,-0.7 -6.2,-0.7 -4.1,0.2 -7.5,1.5 -10.1,3.8 -2.7,2.3 -3.9,5.1 -3.6,8.1 0.3,3.2 2,5.8 5.1,7.8 z"
   id="path1617" />
			<path
   class="st7"
   d="m -158.9,517 9.4,-7.7 c -1.6,-1 -3.5,-1.6 -5.6,-2.1 -4,-0.9 -7.9,-0.7 -11.8,0.7 -3.8,1.4 -6.4,3.5 -7.7,6.3 -1.3,2.8 -1,5.5 1,8 2,2.6 5,4.4 9.1,5.3 4.1,0.9 8,0.7 11.8,-0.7 3.8,-1.4 6.3,-3.5 7.6,-6.3 0.7,-1.5 1,-2.9 0.7,-4.4 z"
   id="path1619" />
		</g><g
     id="g1625">
			<path
   class="st8"
   d="m -86.3,359.7 c 0.5,0.1 0.8,0.1 1.1,0.1 2.9,0 2.9,0 13.5,-3.4 l 9,-2.4 c 8.5,-2.4 8.5,-2.4 10.1,-2.4 1.4,0 3.2,0.5 4.7,1.5 1,0.7 1.6,1.5 1.6,2.6 0,0.9 -0.9,1.9 -1.7,1.9 l -4.3,-0.1 c -1.6,0 -4.7,1.2 -7.5,2.9 1.1,0.4 2,0.8 2.4,0.9 3.8,1.6 5.1,2.9 5.1,5.1 0,0.9 -0.1,2 -0.2,3.2 -0.3,1.8 -0.5,3.1 -0.5,3.7 l -0.1,10.1 c 0,0.8 -0.5,2.6 -1.4,4.8 1.9,0.5 2.6,0.9 3.4,2 0.9,1.2 1.8,3 1.8,3.8 0,0.7 -0.3,1.9 -1,3.3 -0.8,1.6 -1.2,2.6 -2.2,5.1 11.8,4.6 13,5.3 14.4,8.1 0.6,1.3 2,5.8 2,6.5 0,0.3 -0.1,0.5 -0.3,0.5 -0.5,0 -1.9,-0.5 -3.4,-1.2 -2.7,-1.3 -2.7,-1.3 -9.1,-6 -1.6,-1.2 -3.4,-2 -6.7,-3.2 -3,3.2 -5.8,4.6 -9.1,4.6 -0.9,0 -2.5,-0.2 -4.2,-0.5 -1.3,-0.3 -2.5,-0.5 -3.4,-0.7 -1.8,-0.3 -2,-0.4 -3.3,-1.2 l -0.1,-0.3 c 9.6,-0.1 11.9,-0.7 15.8,-4.5 -6.5,-2 -7,-2 -10.3,-2.3 -1.9,0.9 -3.1,2.2 -6.9,6.7 -1.4,2 -2,2.6 -3,2.6 -1.2,0 -1.9,-1.2 -1.9,-3 0,-2.3 0.4,-2.9 3.6,-5.5 0.8,-0.6 4.8,-5.2 6.6,-7.6 1.6,-2.1 4.4,-6.4 4.4,-6.7 0,-0.2 -0.2,-0.2 -0.5,-0.2 -0.9,0 -3,1 -6,3 -6.1,4 -7.2,4.6 -8.2,4.6 -0.5,0 -1.2,-0.8 -1.2,-1.2 l 0.2,-2.3 0.1,-1.6 0.5,-0.9 0.4,-0.2 c 3,-0.1 6.9,-1.8 8.7,-3.8 -1.5,-3.5 -1.7,-4.4 -1.7,-7 0,-5.2 0.8,-8.2 3.1,-11.5 2.3,-3.3 4.4,-5.5 8.6,-8.6 l -1,-0.1 c -1.4,0 -2.4,0.4 -5.9,2.3 -2.6,1.4 -3.5,2 -4.7,2.8 -2.1,1.6 -4.1,2.5 -5.2,2.5 -0.7,0 -2.2,-0.7 -3,-1.4 -1.8,-1.6 -3.4,-3.7 -3.4,-4.5 l 0.1,-0.4 z m 15.7,23.5 c 1.3,-0.2 1.5,-0.4 2.7,-1.5 0.8,-0.9 1.5,-1.6 2.2,-2.2 0.5,-0.5 0.8,-0.9 0.8,-1.2 0,-0.2 -0.2,-0.2 -0.3,-0.2 -0.2,0 -0.3,0 -0.5,0.1 h -0.7 -0.1 -1.1 c -0.9,0 -1.2,-0.3 -1.2,-0.9 0,-0.5 0.1,-1 0.2,-1.7 0.1,-0.3 0.1,-0.3 1.2,-1.2 l 1.6,-1.2 c 1.7,-1.6 1.7,-1.6 1.7,-1.9 0,-0.5 -0.6,-0.6 -2.5,-0.6 -1.1,-0.1 -1.4,-0.2 -2.3,-0.9 -1.5,2.8 -2.1,5.8 -2.1,9.8 0,0.8 0,1.5 0.2,2.1 0.1,0.5 0.2,0.9 0.2,1 z m 11.1,6.4 c -1,-1.4 -1.5,-1.9 -2,-1.9 -1.2,0 -2.2,1.2 -5.5,6.5 3.8,-2.5 4.5,-2.8 7.5,-4.6 z m 0,-7.5 c 0.2,0 0.4,-0.1 0.5,-0.2 0.5,-0.6 1,-5.9 1,-10.9 0,-5.2 -1.3,-7 -5.6,-7.7 -1.6,0.9 -1.9,1.2 -3,2.7 0.2,0.2 0.4,0.2 0.5,0.2 h 1.2 c 2.5,0 5.5,1.7 5.5,3.3 0,1.1 -1.4,3 -3,4 -0.5,0.4 -0.9,0.7 -0.9,0.9 0,0.2 0.3,0.3 1,0.6 1.4,0.6 2.5,1.8 2.5,2.8 0,0.7 -0.1,0.8 -1.9,1.3 -0.4,0.2 -0.5,0.2 -2.6,1.6 -2.4,1.8 -2.4,1.8 -2.4,2 0,0.2 0.2,0.3 0.4,0.3 0.2,0 0.5,-0.1 0.7,-0.2 2,-1 2.5,-1.2 3.9,-1.2 0.8,0 0.8,0 2,0.5 z m -0.5,17.7 c 0.4,0.2 1.4,0.5 2.5,0.9 2,-3.4 3.1,-6.2 3.1,-8 0,-0.6 -0.5,-1.2 -1,-1.2 -0.3,0 -0.6,0.2 -1,0.5 l -9.4,6.1 c 2.6,0.5 2.7,0.5 4.8,1.3 z"
   id="path1623" />
		</g><path
     class="st9"
     d="m -157.2,373.9 -2,1.6 c -6.7,5.1 -10.6,10.2 -11.9,15.3 v 2.5 h 27.9 l 1.3,-12.1 h -3.3 c -0.8,5 -2.7,7.5 -5.7,7.5 H -166 c 1.2,-3.9 4.3,-7.3 9.1,-10.1 l 2.4,-1.3 c 4.2,-2.3 7.1,-4.3 8.7,-5.9 2,-2 3,-4.7 3,-7.9 0,-4.2 -1.9,-7.5 -5.6,-9.7 -2.4,-1.2 -5.2,-1.9 -8.3,-1.9 -4.2,0 -7.7,1.2 -10.2,3.6 -2.1,2.1 -3.2,4.4 -3.2,7.1 0,3.2 1.4,4.8 4.3,4.8 2.5,0 3.7,-1.2 3.7,-3.5 0,-2.2 -1,-3.4 -2.9,-3.6 1.2,-3.1 3.8,-4.6 7.9,-4.6 5.3,0 7.9,2.5 7.9,7.4 0.1,3.2 -2.6,6.7 -8,10.8 z"
     id="path1627" /></g>

</svg>
