<?xml version="1.0" encoding="UTF-8" standalone="no"?>
<svg
   xml:space="preserve"
   id="svg2985"
   x="0"
   y="0"
   enable-background="new -192 293.9 210 255"
   version="1.1"
   viewBox="-192 293.9 210 255"
   sodipodi:docname="white.svg"
   inkscape:version="1.1.2 (0a00cf5339, 2022-02-04)"
   xmlns:inkscape="http://www.inkscape.org/namespaces/inkscape"
   xmlns:sodipodi="http://sodipodi.sourceforge.net/DTD/sodipodi-0.dtd"
   xmlns="http://www.w3.org/2000/svg"
   xmlns:svg="http://www.w3.org/2000/svg"><defs
   id="defs39">
    
  
      <filter
   id="filter3970-5"
   width="1.0183963"
   height="1.0200796"
   x="-0.0091981534"
   y="-0.010039815"
   color-interpolation-filters="sRGB">
        <feGaussianBlur
   id="feGaussianBlur3972-8"
   stdDeviation=".12800763" />
      </filter>
      
      
      
    </defs><sodipodi:namedview
   id="namedview37"
   pagecolor="#ffffff"
   bordercolor="#666666"
   borderopacity="1.0"
   inkscape:pageshadow="2"
   inkscape:pageopacity="0.0"
   inkscape:pagecheckerboard="0"
   showgrid="false"
   inkscape:zoom="1.6078431"
   inkscape:cx="93.914634"
   inkscape:cy="173.21341"
   inkscape:window-width="1866"
   inkscape:window-height="1009"
   inkscape:window-x="54"
   inkscape:window-y="34"
   inkscape:window-maximized="1"
   inkscape:current-layer="svg2985" />
  <style
   id="style2">
    .st3{fill:#fff}.st7{fill:#2a3b92}
  </style>
  <g
   id="g981"
   transform="matrix(1.3163107,0,0,1.3596527,49.50142,-178.81868)"><path
     d="m -59,356.7 h -89.4 c -12.8,0 -19.2,4.7 -19.2,14.1 v 141.3 c 0,9.4 6.4,14.1 19.2,14.1 H -59 c 12.8,0 19.2,-4.7 19.2,-14.1 V 370.8 c 0,-9.4 -6.4,-14.1 -19.2,-14.1 z m 9.8,155.4 c 0,6.2 -3.3,9.3 -9.8,9.3 h -89.4 c -6.5,0 -9.8,-3.1 -9.8,-9.3 V 370.8 c 0,-6.2 3.3,-9.3 9.8,-9.3 H -59 c 6.5,0 9.8,3.1 9.8,9.3 z"
     class="st7"
     id="path28" /><path
     d="M -70.4,367.5 H -137 c -9.5,0 -14.3,4.1 -14.3,12.3 v 123.3 c 0,8.2 4.8,12.3 14.3,12.3 h 66.6 c 9.5,0 14.3,-4.1 14.3,-12.3 V 379.8 c 0,-8.2 -4.8,-12.3 -14.3,-12.3 z m -73.9,12.3 c 0,-5.4 2.4,-8.1 7.3,-8.1 h 4.4 v 4.8 c 0,5.4 -2.4,8.1 -7.3,8.1 h -4.4 z m 11.7,131.4 h -4.4 c -4.8,0 -7.3,-2.7 -7.3,-8.1 v -4.8 h 4.4 c 4.8,0 7.3,2.7 7.3,8.1 z m 69.4,-8.1 c 0,5.4 -2.4,8.1 -7.3,8.1 h -4.4 v -4.8 c 0,-5.4 2.4,-8.1 7.3,-8.1 h 4.4 z m 0,-9.1 h -4.4 c -7.6,0 -11.4,4.1 -11.4,12.3 v 4.8 h -49.4 v -4.8 c 0,-8.2 -3.8,-12.3 -11.4,-12.3 h -4.4 V 388.8 h 4.4 c 7.6,0 11.4,-4.1 11.4,-12.3 v -4.8 H -79 v 4.8 c 0,8.2 3.8,12.3 11.4,12.3 h 4.4 z m 0,-109.4 h -4.4 c -4.8,0 -7.3,-2.7 -7.3,-8.1 v -4.8 h 4.4 c 4.8,0 7.3,2.7 7.3,8.1 z"
     class="st7"
     id="path30" /></g>
</svg>
