<?xml version="1.0" encoding="UTF-8" standalone="no"?>
<svg
   xml:space="preserve"
   id="svg2985"
   x="0"
   y="0"
   enable-background="new -192 293.9 210 255"
   version="1.1"
   viewBox="-192 293.9 210 255"
   sodipodi:docname="winter.svg"
   inkscape:version="1.1.2 (0a00cf5339, 2022-02-04)"
   xmlns:inkscape="http://www.inkscape.org/namespaces/inkscape"
   xmlns:sodipodi="http://sodipodi.sourceforge.net/DTD/sodipodi-0.dtd"
   xmlns="http://www.w3.org/2000/svg"
   xmlns:svg="http://www.w3.org/2000/svg"><defs
   id="defs1744">
    
  
      <filter
   id="filter3970-5"
   width="1.0183963"
   height="1.0200796"
   x="-0.0091981534"
   y="-0.010039815"
   color-interpolation-filters="sRGB">
        <feGaussianBlur
   id="feGaussianBlur3972-8"
   stdDeviation=".12800763" />
      </filter>
      
      
      
      
      
      
      
      
      
    </defs><sodipodi:namedview
   id="namedview1742"
   pagecolor="#ffffff"
   bordercolor="#666666"
   borderopacity="1.0"
   inkscape:pageshadow="2"
   inkscape:pageopacity="0.0"
   inkscape:pagecheckerboard="0"
   showgrid="false"
   inkscape:zoom="3.2156863"
   inkscape:cx="105.10976"
   inkscape:cy="93.137195"
   inkscape:window-width="1866"
   inkscape:window-height="1009"
   inkscape:window-x="54"
   inkscape:window-y="34"
   inkscape:window-maximized="1"
   inkscape:current-layer="svg2985" />
  <style
   id="style1695">
    .st3{fill:#fff}.st7{fill:#038249}.st8{fill:#d37f11}
  </style>
  <g
   id="g2478"
   transform="matrix(1.3812765,0,0,1.3812765,56.445565,-188.70983)"><path
     d="m -80,470.6 c 0.5,-14.9 -1.2,-33.7 -5.3,-56.5 -0.4,26.2 -1.5,47.9 -3.1,65.1 -1.9,18.9 -5.7,36.9 -11.4,53.9 H -89 c 5.6,-21.4 8.6,-42.3 9,-62.5 z"
     class="st7"
     id="path1721" /><path
     d="m -128.3,533.3 h 5.9 c 1.8,-37.9 3.6,-61.8 5.5,-71.7 1.9,-9.9 3.4,-17 4.5,-21.5 1,-4.5 -0.3,-7.3 -4,-8.5 0,-5.1 -6.7,-9.3 -20,-12.5 -0.7,-2.3 -1.4,-4.5 -2.3,-6.6 -2.2,1 -4.1,2.1 -5.7,3.5 l -8.8,-7.5 c -2.6,3.5 -4.2,7.3 -4.8,11.4 -6.4,1.2 -10.9,2.7 -13.5,4.5 1.9,5.3 4.7,9 8.2,11.3 -2.3,3.5 -3.5,8.7 -3.5,15.5 5.2,0.1 9.5,-0.2 12.9,-0.8 1.8,3.9 5.4,7.3 10.9,10.3 0.8,-3.7 2,-7.2 3.5,-10.5 2.8,1.8 4.7,2.6 5.7,2.6 -0.1,-2.6 -0.3,-5.2 -0.5,-8 3.1,-0.8 7.1,-2.4 12,-4.7 3.7,-3.1 4.7,-2.1 3.1,3 -5.2,16.3 -8.2,46.3 -9.1,90.2 z m -13,-87.8 c -1.6,3.4 -2.8,6.8 -3.5,10.1 -2.9,-1.4 -5.3,-4.2 -7.5,-8.3 -3.7,0.9 -7.4,1.3 -11,1.3 0,-5.3 1.5,-9.7 4.4,-13.2 -5.3,-4 -7.9,-7.2 -7.9,-9.7 3.8,-1.5 7.6,-2.3 11.3,-2.5 1.2,-4.1 2.3,-7.2 3.3,-9.3 l 7.8,7 3.5,-2.2 c 0.6,1.3 0.9,3.7 0.9,7 -3.2,-1.2 -6.2,-1.8 -8.8,-1.8 -4.1,0 -6.2,3.2 -6.2,9.4 0,6.9 2.5,10.3 7.5,10.3 2.1,0 5.1,-0.7 8.8,-2.2 0.4,1.4 0.8,3.3 1.1,5.8 z m -3.1,-12.1 c -0.1,5.4 -1.2,8.1 -3.5,8.1 -2.6,0 -4,-2.7 -4,-8.1 0,-4.8 1.2,-7.3 3.5,-7.3 2.7,0 4,2.5 4,7.3 z m 9.3,7.7 c 0,-1.8 -0.6,-4.8 -1.8,-8.8 0.6,-3.5 0.9,-6.3 0.9,-8.3 9.4,2.3 14.1,4.8 14.1,7.5 -0.1,2.2 -4.5,5.4 -13.2,9.6 z"
     class="st8"
     id="path1723" /><path
     d="m -167.8,496.8 c 2.2,-0.7 4.4,-1.5 6.7,-2.4 1.4,2.1 3.6,4.8 6.7,8 1.9,2.1 4.7,2.9 8.3,2.5 2.6,2.1 4.5,5.5 5.7,10.3 1.5,6.2 2.6,12.2 3.4,18 h 5.2 c -2.3,-17.2 -5.9,-27.5 -10.8,-30.8 2,-2.9 2.9,-8.2 2.6,-15.8 1.8,-1 3.5,-2.1 5.1,-3.3 -1.3,-1.5 -2.7,-2.6 -4.3,-3.5 l 4.3,-8.6 c -3.6,-1.1 -7.2,-1.4 -10.8,-0.9 -2.5,-4.5 -4.8,-7.6 -6.9,-9.2 -4,2.7 -6.5,5.7 -7.6,9 -3.5,-1 -8.1,-0.6 -13.8,1 1.1,4 2.3,7.3 3.5,9.7 -2.9,2.3 -4.9,5.9 -6.2,10.8 3.3,-0.3 6.5,-0.3 9.7,0.1 -0.7,2.6 -1,4.3 -0.8,5.1 z m 20.9,3.8 c -1.9,0.5 -5.6,-2 -11.2,-7.7 1.6,-0.5 4,-1.6 7,-3.4 3.1,-0.4 5.6,-0.9 7.3,-1.4 0.2,7.7 -0.8,11.9 -3.1,12.5 z m -14.5,-17.2 c -0.6,-2 1.4,-3.7 5.9,-5.1 4.1,-1.2 6.4,-0.8 7,1 0.5,2 -1.2,3.6 -5.3,4.7 -4.5,1.3 -7.1,1.1 -7.6,-0.6 z m -11.1,5.7 c 0.5,-2.6 2.3,-5.2 5.3,-7.8 -1.6,-2.6 -2.8,-5.3 -3.6,-8 4.5,-1.3 8.5,-1.3 12.2,0.1 2.1,-5 4.2,-7.8 6.3,-8.3 2,2.6 3.6,5.2 4.7,8 3.7,0 6.6,0.1 8.7,0.2 l -4.2,7.7 2.6,2.2 c -1,0.7 -2.9,1.5 -5.7,2.4 0.2,-2.8 0,-5.2 -0.5,-7.1 -0.9,-3.1 -4,-4 -9.3,-2.5 -5.8,1.8 -8.1,4.5 -7,8.2 0.5,1.6 1.8,3.7 4,6.3 -1.1,0.6 -2.7,1.3 -4.7,2.1 l 0.8,-3.2 c -3.6,-0.5 -6.7,-0.6 -9.6,-0.3 z"
     class="st8"
     id="path1725" /><path
     d="m -99.1,515.9 c 4.7,-18.3 7.7,-34.9 9,-49.8 1.3,-20.6 -0.9,-41.2 -6.6,-62 1,29.4 0.3,53.2 -2.3,71.2 -2.1,13.6 -5.2,27.9 -9.2,43.2 0.3,-1.6 0.9,-6 1.8,-13.2 0.9,-7.2 2.1,-15.1 3.7,-23.8 1.6,-8.7 2.7,-19 3.2,-31 1,-19.3 -3.5,-37.6 -13.5,-54.9 5.5,21.1 6.3,45.3 2.3,72.5 -2.7,15.7 -5.1,37.5 -7.1,65.1 h 14.7 c 0.7,-4.2 2.1,-10 4,-17.3 z"
     class="st7"
     id="path1727" /><path
     d="m -31,466.7 c -1.1,-5.9 -3.2,-10.2 -6.2,-12.9 1.5,-2.9 2.9,-6.7 4.3,-11.4 -6.2,-2 -11.2,-2.4 -15.1,-1.3 -1,-3.9 -3.6,-7.4 -7.8,-10.7 -2.5,1.9 -5.2,5.6 -8,11 -3.9,-0.7 -7.8,-0.3 -11.8,1 l 4.3,10.2 c -1.8,1 -3.4,2.4 -4.8,4.2 1.6,1.4 3.4,2.7 5.4,4 -0.7,9 -0.2,15.1 1.4,18.1 -6.4,5.3 -11.2,23.4 -14.6,54.4 h 5.7 c 0.9,-11.9 3.1,-24.8 6.6,-38.7 1.6,-6.1 3.8,-10.1 6.7,-12.2 4,0.4 7,-0.5 9.2,-3 3.5,-3.8 6.1,-7 7.7,-9.6 2.4,1.1 4.8,2.1 7,2.9 0.4,-1 0.1,-2.9 -0.7,-5.9 3.6,-0.4 7.1,-0.5 10.7,-0.1 z m -32.7,10.6 c -2.4,-0.8 -3.3,-5.8 -2.6,-14.9 1.8,0.6 4.4,1.1 7.8,1.6 3.3,2.2 5.7,3.6 7.4,4.1 -6.3,6.8 -10.5,9.8 -12.6,9.2 z m 8.2,-19.7 c -4.3,-1.4 -6.2,-3.3 -5.5,-5.6 0.7,-2.2 3.3,-2.6 7.6,-1.2 5,1.5 7.1,3.6 6.3,6 -0.6,2 -3.4,2.2 -8.4,0.8 z m 10.1,6.2 0.5,3.8 c -2.1,-1 -3.8,-1.8 -4.9,-2.5 2.4,-3 4,-5.5 4.6,-7.5 1.4,-4.5 -1.1,-7.7 -7.4,-9.7 -5.7,-1.8 -9.1,-0.9 -10.2,2.9 -0.8,2.4 -1.1,5.2 -1,8.5 -3,-1 -5.1,-1.9 -6.2,-2.7 l 3.1,-2.6 -4.2,-9.1 c 2.2,-0.2 5.3,-0.3 9.3,-0.3 1.3,-3.2 3.2,-6.4 5.6,-9.4 2.2,0.7 4.4,4 6.5,9.9 4,-1.7 8.4,-1.8 13.2,-0.2 -1,3.3 -2.5,6.5 -4.4,9.7 3.2,3.1 5.1,6.1 5.5,9.1 -3.1,-0.4 -6.5,-0.3 -10,0.1 z"
     class="st8"
     id="path1729" /><path
     fill="#bf3718"
     d="m -98.4,399.1 c 0.6,0.9 1.1,1.2 1.8,1.2 1.7,0 4.8,-2.3 10.1,-7.2 3.7,-3.5 5.5,-5.5 13.2,-15.7 -1.3,-0.7 -2.1,-0.9 -4.8,-0.9 -1.3,0 -2.4,0.1 -3.4,0.4 -0.6,0.1 -1.2,0.2 -1.5,0.2 -0.4,0 -0.6,-0.2 -1,-0.5 v -0.3 c 0.2,-0.8 0.5,-1.2 1.9,-1.9 2.7,-1.4 4.1,-1.9 5.5,-1.9 0.6,0 1.6,0.1 3,0.3 0.6,0.1 1.6,0.2 3,0.2 4.7,-6 6.9,-9.8 6.9,-11.2 0,-0.8 -1.5,-1.6 -3,-1.6 -1.1,0 -2.2,0.9 -4.6,3.7 -1.3,1.6 -3.4,3.6 -6.1,6.1 -2.3,2.1 -2.8,2.4 -3.7,2.4 -1,0 -2.3,-2 -2.3,-3.5 0,-0.6 0,-0.9 0.5,-2.8 0.2,-1.1 0.5,-1.3 2.6,-2.4 2,-1.1 2.1,-1.2 5.3,-5.1 2.3,-3 2.5,-3.2 2.5,-3.8 0,-0.2 -0.2,-0.6 -0.5,-1.2 -0.7,-1.2 -1.1,-2.3 -1.1,-3.2 0,0 0,-0.1 0.1,-0.3 h 0.3 c 0.9,0.3 1.4,0.5 1.7,0.6 l 2.8,0.9 c 3.4,1.4 4.6,2.7 4.8,4.8 4.6,0.9 5.1,1.1 6.3,1.9 1.6,0.9 2.9,3.2 2.9,4.9 0,1.2 0,1.2 -3.2,4.1 -0.5,0.5 -1.6,1.8 -3,3.7 -0.5,0.5 -1.6,2.2 -3,3.9 7.9,5.5 15.7,9.8 21.8,12 7.4,2.3 8.3,3 10.8,7.3 v 0.3 c -0.7,1.1 -0.7,1.2 -2.3,1.3 L -40,396 c -3.3,0 -5.8,-1 -9.5,-3.7 -1.4,-1.1 -4.5,-3.6 -9.6,-7.9 -4.2,-3.5 -5.1,-4.1 -8.7,-5.7 -12.1,13.7 -14.4,16.1 -18.6,19.1 -4.4,3.2 -8,5 -10.2,5 -1.2,0 -2.4,-1.6 -2.4,-3.1 0,-0.4 0.2,-0.6 0.5,-1.1 h 0.1 z m 25.1,-12.3 c 1,-0.2 1.9,-0.2 2.4,-0.2 4.3,0 9.2,3.7 9.2,6.9 0,1 -0.6,2.3 -1.3,2.9 -0.3,0.2 -0.5,0.3 -0.6,0.3 l -5.5,0.3 -2,0.6 -1.5,0.1 v -0.3 c 0.4,-0.5 0.8,-1 0.9,-1.1 2,-2.3 2.2,-2.6 2.1,-2.9 0,-0.3 -0.3,-0.9 -0.9,-1.4 -1.5,-1.5 -2.2,-2.8 -2.9,-4.8 z m 0.8,14.4 c 1.6,1.5 2.3,1.9 4.4,2.4 4.2,0.9 4.5,1.1 6.3,2.8 2.5,2.3 4.1,4.7 4.1,6 0,0.9 -1.1,1.4 -3,1.4 -2.3,0 -2.3,0 -8.2,-3 -2,-1 -2.9,-2.1 -3.6,-4.3 -0.5,-1.7 -1,-3.5 -1,-4.1 0,-0.3 0.2,-0.7 0.5,-1.2 z"
     id="path1731" /><path
     fill="#2a3b92"
     d="m -152.4,352.3 -21.2,26.1 v 4.4 h 20.2 v 4 c 0,1.4 -0.2,2.3 -0.7,2.7 -0.6,0.7 -2.4,1 -5.4,1.1 v 3.1 h 17.1 v -3.1 c -2.3,-0.1 -3.8,-0.3 -4.5,-0.4 -1.1,-0.4 -1.6,-1.5 -1.6,-3.4 v -4 h 7.6 v -4.1 h -7.6 v -26.5 h -3.9 z m -1.1,26.5 h -15.4 l 15.4,-19.4 z"
     id="path1733" /><path
     d="m -116.4,431.6 v -0.1 h -0.1 c 0,0.1 0,0.1 -0.1,0.2 0,0.3 -0.1,0.6 -0.2,0.9 0,0.3 0,0.5 -0.1,0.8 0,0.3 -0.1,0.5 -0.2,0.8 -0.1,1.1 -0.6,2.1 -1.3,2.8 -0.3,0.5 -0.7,1 -1.2,1.4 1.2,-0.2 1.3,1.4 0.3,4.7 -5.1,16.2 -8.1,46.2 -9,90.1 h 5.9 c 1.8,-37.9 3.6,-61.8 5.5,-71.7 1.9,-9.9 3.4,-17 4.5,-21.5 1,-4.4 -0.3,-7.2 -4,-8.4 z m -26.1,70.9 -0.3,0.3 c -0.7,1.1 -1.9,1.9 -3.6,2 v 0.1 h 0.3 c 2.6,2.1 4.5,5.5 5.7,10.3 1.5,6.2 2.6,12.2 3.4,18 h 5.2 c -2.2,-17.1 -5.8,-27.4 -10.7,-30.7 z M -68,480.1 c -0.6,-0.4 -1.1,-1 -1.5,-1.7 0.1,0.2 0.1,0.3 0.2,0.5 -6.4,5.3 -11.2,23.4 -14.6,54.4 h 5.7 c 0.9,-11.9 3.1,-24.8 6.6,-38.7 1.6,-6.1 3.8,-10.1 6.7,-12.2 -0.2,-0.1 -0.5,-0.3 -0.7,-0.5 -1,-0.3 -1.8,-0.9 -2.4,-1.8 z"
     class="st7"
     id="path1735" /></g>
</svg>
